<svg width="40" height="40" viewBox="0 0 40 40" fill="none" xmlns="http://www.w3.org/2000/svg">
<path d="M11.6667 13.3333L19.4107 5.58923C19.7362 5.26379 20.2638 5.26379 20.5893 5.58923L28.3333 13.3333M5 20L20 35M13.3333 27.5L18.2864 22.2992C18.6145 21.9548 19.1638 21.9543 19.4924 22.2982L30.8333 34.1666M30 20C30 20.9205 29.2538 21.6666 28.3333 21.6666C27.4129 21.6666 26.6667 20.9205 26.6667 20C26.6667 19.0795 27.4129 18.3333 28.3333 18.3333C29.2538 18.3333 30 19.0795 30 20ZM10.3333 35H29.6667C31.5335 35 32.4669 35 33.18 34.6367C33.8072 34.3171 34.3171 33.8072 34.6367 33.1799C35 32.4669 35 31.5335 35 29.6666V18.6666C35 16.7998 35 15.8664 34.6367 15.1533C34.3171 14.5261 33.8072 14.0162 33.18 13.6966C32.4669 13.3333 31.5335 13.3333 29.6667 13.3333H10.3333C8.46649 13.3333 7.53307 13.3333 6.82003 13.6966C6.19282 14.0162 5.68289 14.5261 5.36331 15.1533C5 15.8664 5 16.7998 5 18.6666V29.6666C5 31.5335 5 32.4669 5.36331 33.1799C5.68289 33.8072 6.19282 34.3171 6.82003 34.6367C7.53307 35 8.46649 35 10.3333 35Z" stroke="black" stroke-width="2" stroke-linecap="round"/>
</svg>
