<svg width="40" height="40" viewBox="0 0 40 40" fill="none" xmlns="http://www.w3.org/2000/svg">
<path d="M6.21707 37.4251L6.67106 36.5341H6.67106L6.21707 37.4251ZM2.57527 33.7833L3.46628 33.3293H3.46628L2.57527 33.7833ZM33.7836 2.57497L33.3296 3.46597V3.46597L33.7836 2.57497ZM37.4254 6.21677L36.5344 6.67076V6.67076L37.4254 6.21677ZM6.21707 2.57497L6.67106 3.46597L6.21707 2.57497ZM2.57527 6.21677L3.46628 6.67076L2.57527 6.21677ZM37.3337 20C37.3337 20.5523 37.7814 21 38.3337 21C38.8859 21 39.3337 20.5523 39.3337 20H37.3337ZM20.0003 39.3334C20.5526 39.3334 21.0003 38.8856 21.0003 38.3334C21.0003 37.7811 20.5526 37.3334 20.0003 37.3334V39.3334ZM1.66699 12.3334C1.11471 12.3334 0.666992 12.7811 0.666992 13.3334C0.666992 13.8856 1.11471 14.3334 1.66699 14.3334V12.3334ZM38.3337 14.3334C38.8859 14.3334 39.3337 13.8856 39.3337 13.3334C39.3337 12.7811 38.8859 12.3334 38.3337 12.3334V14.3334ZM37.6266 39.0405C38.0171 39.431 38.6502 39.431 39.0408 39.0405C39.4313 38.6499 39.4313 38.0168 39.0408 37.6262L37.6266 39.0405ZM9.33366 8.33335C9.33366 7.78107 8.88594 7.33335 8.33366 7.33335C7.78137 7.33335 7.33366 7.78107 7.33366 8.33335H9.33366ZM7.33366 8.35002C7.33366 8.90231 7.78137 9.35002 8.33366 9.35002C8.88594 9.35002 9.33366 8.90231 9.33366 8.35002H7.33366ZM14.3337 8.33335C14.3337 7.78107 13.8859 7.33335 13.3337 7.33335C12.7814 7.33335 12.3337 7.78107 12.3337 8.33335H14.3337ZM12.3337 8.35002C12.3337 8.90231 12.7814 9.35002 13.3337 9.35002C13.8859 9.35002 14.3337 8.90231 14.3337 8.35002H12.3337ZM19.3337 8.33335C19.3337 7.78107 18.8859 7.33335 18.3337 7.33335C17.7814 7.33335 17.3337 7.78107 17.3337 8.33335H19.3337ZM17.3337 8.35002C17.3337 8.90231 17.7814 9.35002 18.3337 9.35002C18.8859 9.35002 19.3337 8.90231 19.3337 8.35002H17.3337ZM15.0003 2.66669H25.0003V0.666687H15.0003V2.66669ZM2.66699 25V15H0.666992V25H2.66699ZM15.0003 37.3334C12.6503 37.3334 10.9479 37.3326 9.60844 37.2231C8.28068 37.1147 7.39789 36.9044 6.67106 36.5341L5.76308 38.3161C6.81885 38.854 7.99414 39.0979 9.44558 39.2165C10.8853 39.3341 12.6833 39.3334 15.0003 39.3334V37.3334ZM0.666992 25C0.666992 27.3171 0.666214 29.115 0.783848 30.5548C0.902436 32.0062 1.14632 33.1815 1.68426 34.2373L3.46628 33.3293C3.09594 32.6025 2.88569 31.7197 2.77721 30.3919C2.66777 29.0525 2.66699 27.3501 2.66699 25H0.666992ZM6.67106 36.5341C5.29121 35.831 4.16935 34.7091 3.46628 33.3293L1.68426 34.2373C2.57908 35.9934 4.0069 37.4213 5.76308 38.3161L6.67106 36.5341ZM25.0003 2.66669C27.3504 2.66669 29.0528 2.66746 30.3922 2.7769C31.72 2.88538 32.6028 3.09563 33.3296 3.46597L34.2376 1.68396C33.1818 1.14602 32.0065 0.90213 30.5551 0.783543C29.1153 0.665909 27.3174 0.666687 25.0003 0.666687V2.66669ZM39.3337 15C39.3337 12.683 39.3344 10.885 39.2168 9.44527C39.0982 7.99383 38.8543 6.81854 38.3164 5.76278L36.5344 6.67076C36.9047 7.39759 37.115 8.28038 37.2234 9.60814C37.3329 10.9476 37.3337 12.65 37.3337 15H39.3337ZM33.3296 3.46597C34.7094 4.16904 35.8313 5.2909 36.5344 6.67076L38.3164 5.76278C37.4216 4.0066 35.9938 2.57878 34.2376 1.68396L33.3296 3.46597ZM15.0003 0.666687C12.6833 0.666687 10.8853 0.665909 9.44558 0.783543C7.99414 0.90213 6.81885 1.14602 5.76308 1.68396L6.67106 3.46597C7.39789 3.09563 8.28068 2.88538 9.60844 2.7769C10.9479 2.66746 12.6503 2.66669 15.0003 2.66669V0.666687ZM2.66699 15C2.66699 12.65 2.66777 10.9476 2.77721 9.60814C2.88569 8.28038 3.09594 7.39759 3.46628 6.67076L1.68426 5.76278C1.14632 6.81854 0.902436 7.99383 0.783848 9.44527C0.666214 10.885 0.666992 12.683 0.666992 15H2.66699ZM5.76308 1.68396C4.0069 2.57878 2.57908 4.0066 1.68426 5.76278L3.46628 6.67076C4.16935 5.2909 5.29121 4.16904 6.67106 3.46597L5.76308 1.68396ZM37.3337 15V20H39.3337V15H37.3337ZM20.0003 37.3334H15.0003V39.3334H20.0003V37.3334ZM1.66699 14.3334H38.3337V12.3334H1.66699V14.3334ZM34.0984 27.549C34.0984 31.166 31.1663 34.0981 27.5493 34.0981V36.0981C32.2708 36.0981 36.0984 32.2705 36.0984 27.549H34.0984ZM27.5493 34.0981C23.9324 34.0981 21.0003 31.166 21.0003 27.549H19.0003C19.0003 32.2705 22.8279 36.0981 27.5493 36.0981V34.0981ZM21.0003 27.549C21.0003 23.9321 23.9324 21 27.5493 21V19C22.8279 19 19.0003 22.8275 19.0003 27.549H21.0003ZM27.5493 21C31.1663 21 34.0984 23.9321 34.0984 27.549H36.0984C36.0984 22.8275 32.2708 19 27.5493 19V21ZM32.2344 33.6483L37.6266 39.0405L39.0408 37.6262L33.6486 32.2341L32.2344 33.6483ZM7.33366 8.33335V8.35002H9.33366V8.33335H7.33366ZM12.3337 8.33335V8.35002H14.3337V8.33335H12.3337ZM17.3337 8.33335V8.35002H19.3337V8.33335H17.3337Z" fill="black"/>
</svg>
