<svg width="40" height="40" viewBox="0 0 40 40" fill="none" xmlns="http://www.w3.org/2000/svg">
<path d="M20.0003 38.3334C30.1255 38.3334 38.3337 30.1252 38.3337 20C38.3337 9.8748 30.1255 1.66669 20.0003 1.66669M20.0003 38.3334C9.87511 38.3334 1.66699 30.1252 1.66699 20C1.66699 9.8748 9.87511 1.66669 20.0003 1.66669M20.0003 38.3334C23.6822 38.3334 26.667 30.1252 26.667 20C26.667 9.8748 23.6822 1.66669 20.0003 1.66669M20.0003 38.3334C16.3184 38.3334 13.3337 30.1252 13.3337 20C13.3337 9.8748 16.3184 1.66669 20.0003 1.66669M3.33366 13.3334H36.667M3.33366 25H36.667" stroke="black" stroke-width="2" stroke-linecap="round"/>
</svg>
