<svg width="40" height="40" viewBox="0 0 40 40" fill="none" xmlns="http://www.w3.org/2000/svg">
<path d="M37.5 26.4967L33.5 23.0408M8.5 23.7652V30.0213C8.5 30.3631 8.5 30.5339 8.51445 30.6779C8.65473 32.0756 9.78162 33.1815 11.206 33.3192C11.3526 33.3334 11.5268 33.3334 11.875 33.3334C12.2233 33.3334 12.3974 33.3334 12.5441 33.3192C13.9684 33.1815 15.0953 32.0756 15.2356 30.6779C15.25 30.5339 15.25 30.3631 15.25 30.0213V23.7652M8.5 23.7652C7.10218 23.7652 6.40326 23.7652 5.85195 23.5411C5.11687 23.2423 4.53285 22.6692 4.22836 21.9478C4 21.4068 4 20.7209 4 19.3491L4 17.5827C4 15.1095 4 13.8728 4.49047 12.9282C4.9219 12.0972 5.61031 11.4217 6.45704 10.9983C7.41964 10.517 8.67976 10.517 11.2 10.517H15.25M8.5 23.7652H15.25M15.25 23.7652H16.375C19.0246 23.7652 22.2659 25.159 24.7664 26.4967C26.2252 27.2771 26.9546 27.6673 27.4324 27.6099C27.8753 27.5567 28.2103 27.3615 28.47 27.0053C28.75 26.6211 28.75 25.8525 28.75 24.3153V9.96685C28.75 8.42963 28.75 7.66102 28.47 7.27688C28.2103 6.92066 27.8753 6.72547 27.4324 6.67223C26.9546 6.61481 26.2252 7.00501 24.7664 7.78541C22.2659 9.12312 19.0246 10.517 16.375 10.517H15.25M15.25 23.7652V10.517M37.5 17.5827H33.5M37.5 7.78541L33.5 10.9983" stroke="black" stroke-width="2" stroke-linecap="round" stroke-linejoin="round"/>
</svg>
