<svg width="40" height="40" viewBox="0 0 40 40" fill="none" xmlns="http://www.w3.org/2000/svg">
<path d="M17.7436 19.4667L18.6769 19.1077L17.7436 19.4667ZM22.3968 31.565L21.4635 31.924L22.3968 31.565ZM31.565 22.3968L31.924 21.4635L31.565 22.3968ZM19.4667 17.7436L19.1077 18.677L19.4667 17.7436ZM28.1144 31.4602L28.9144 30.8602L28.1144 31.4602ZM28.9743 32.6067L28.1743 33.2067L28.9743 32.6067ZM32.6067 28.9743L32.0067 29.7743L32.0067 29.7743L32.6067 28.9743ZM31.4602 28.1144L32.0602 27.3144H32.0602L31.4602 28.1144ZM17.3277 17.8519L16.3798 17.5332L17.3277 17.8519ZM17.8519 17.3277L17.5332 16.3798L17.8519 17.3277ZM10.9596 12.3738C11.3501 12.7643 11.9832 12.7643 12.3738 12.3738C12.7643 11.9832 12.7643 11.3501 12.3738 10.9596L10.9596 12.3738ZM9.04044 7.62623C8.64992 7.2357 8.01675 7.2357 7.62623 7.62623C7.2357 8.01675 7.2357 8.64992 7.62623 9.04044L9.04044 7.62623ZM15.6667 10C15.6667 10.5523 16.1144 11 16.6667 11C17.219 11 17.6667 10.5523 17.6667 10H15.6667ZM17.6667 5C17.6667 4.44772 17.219 4 16.6667 4C16.1144 4 15.6667 4.44772 15.6667 5H17.6667ZM10 17.6667C10.5523 17.6667 11 17.219 11 16.6667C11 16.1144 10.5523 15.6667 10 15.6667V17.6667ZM5 15.6667C4.44772 15.6667 4 16.1144 4 16.6667C4 17.219 4.44772 17.6667 5 17.6667V15.6667ZM20.9596 10.9596C20.569 11.3501 20.569 11.9832 20.9596 12.3738C21.3501 12.7643 21.9832 12.7643 22.3738 12.3738L20.9596 10.9596ZM25.7071 9.04044C26.0976 8.64992 26.0976 8.01675 25.7071 7.62623C25.3166 7.2357 24.6834 7.2357 24.2929 7.62623L25.7071 9.04044ZM7.62623 24.2929C7.2357 24.6834 7.2357 25.3166 7.62623 25.7071C8.01675 26.0976 8.64992 26.0976 9.04044 25.7071L7.62623 24.2929ZM12.3738 22.3738C12.7643 21.9832 12.7643 21.3501 12.3738 20.9596C11.9832 20.569 11.3501 20.569 10.9596 20.9596L12.3738 22.3738ZM16.8103 19.8257L21.4635 31.924L23.3301 31.206L18.6769 19.1077L16.8103 19.8257ZM31.924 21.4635L19.8257 16.8103L19.1077 18.677L31.206 23.3301L31.924 21.4635ZM27.3144 32.0602L28.1743 33.2067L29.7743 32.0067L28.9144 30.8602L27.3144 32.0602ZM33.2067 28.1743L32.0602 27.3144L30.8602 28.9144L32.0067 29.7743L33.2067 28.1743ZM32.0602 27.3144C31.6895 27.0364 31.741 26.4655 32.1555 26.2583L31.261 24.4694C29.5168 25.3415 29.3001 27.7443 30.8602 28.9144L32.0602 27.3144ZM33.5917 33.5917C35.1385 32.0449 34.9567 29.4868 33.2067 28.1743L32.0067 29.7743C32.783 30.3565 32.8637 31.4913 32.1775 32.1775L33.5917 33.5917ZM28.1743 33.2067C29.4868 34.9567 32.0449 35.1385 33.5917 33.5917L32.1775 32.1775C31.4913 32.8637 30.3565 32.783 29.7743 32.0067L28.1743 33.2067ZM26.2583 32.1555C26.4655 31.741 27.0364 31.6895 27.3144 32.0602L28.9144 30.8602C27.7443 29.3001 25.3415 29.5168 24.4694 31.261L26.2583 32.1555ZM31.206 23.3301C31.7117 23.5246 31.7456 24.2271 31.261 24.4694L32.1555 26.2583C34.1948 25.2386 34.0521 22.282 31.924 21.4635L31.206 23.3301ZM21.4635 31.924C22.282 34.0521 25.2386 34.1948 26.2583 32.1555L24.4694 31.261C24.2271 31.7456 23.5246 31.7117 23.3301 31.206L21.4635 31.924ZM18.6769 19.1077C18.4993 18.6458 18.3916 18.3631 18.3336 18.1594C18.2685 17.931 18.331 18.0056 18.2755 18.1707L16.3798 17.5332C16.2286 17.9829 16.3286 18.4214 16.4101 18.7075C16.4987 19.0184 16.6469 19.4009 16.8103 19.8257L18.6769 19.1077ZM19.8257 16.8103C19.4009 16.6469 19.0184 16.4987 18.7075 16.4101C18.4214 16.3286 17.9829 16.2286 17.5332 16.3798L18.1707 18.2755C18.0056 18.331 17.931 18.2685 18.1594 18.3336C18.3631 18.3916 18.6458 18.4993 19.1077 18.677L19.8257 16.8103ZM18.2755 18.1707C18.2589 18.2201 18.2201 18.2589 18.1707 18.2755L17.5332 16.3798C16.9895 16.5626 16.5626 16.9895 16.3798 17.5332L18.2755 18.1707ZM12.3738 10.9596L9.04044 7.62623L7.62623 9.04044L10.9596 12.3738L12.3738 10.9596ZM17.6667 10V5H15.6667V10H17.6667ZM10 15.6667H5V17.6667H10V15.6667ZM22.3738 12.3738L25.7071 9.04044L24.2929 7.62623L20.9596 10.9596L22.3738 12.3738ZM9.04044 25.7071L12.3738 22.3738L10.9596 20.9596L7.62623 24.2929L9.04044 25.7071Z" fill="black"/>
</svg>
