<svg width="40" height="40" viewBox="0 0 40 40" fill="none" xmlns="http://www.w3.org/2000/svg">
<path d="M17.6093 1.84054C18.9198 0.71982 21.0659 0.71982 22.3954 1.84054L25.3964 4.4241C25.9661 4.91798 27.0297 5.31682 27.7894 5.31682H31.0182C33.0315 5.31682 34.6838 6.96928 34.6838 8.98277V12.2121C34.6838 12.9529 35.0827 14.0357 35.5765 14.6055L38.1596 17.6067C39.2801 18.9174 39.2801 21.0639 38.1596 22.3935L35.5765 25.3947C35.0827 25.9646 34.6838 27.0283 34.6838 27.7881V31.0175C34.6838 33.031 33.0315 34.6834 31.0182 34.6834H27.7894C27.0487 34.6834 25.9661 35.0823 25.3964 35.5761L22.3954 38.1595C21.0849 39.2802 18.9388 39.2802 17.6093 38.1595L14.6084 35.5761C14.0386 35.0823 12.975 34.6834 12.2153 34.6834H8.92951C6.91626 34.6834 5.2639 33.031 5.2639 31.0175V27.7691C5.2639 27.0283 4.86506 25.9646 4.39024 25.3947L1.82619 22.3745C0.724603 21.0638 0.724603 18.9364 1.82619 17.6257L4.39024 14.6055C4.86506 14.0357 5.2639 12.9719 5.2639 12.2311V8.98277C5.2639 6.96928 6.91626 5.31682 8.92951 5.31682H12.2153C12.956 5.31682 14.0386 4.91798 14.6084 4.4241L17.6093 1.84054Z" stroke="#292929" stroke-width="2" stroke-linecap="round" stroke-linejoin="round"/>
<path d="M16.4836 24.7L18.9002 26.5666C19.2169 26.8833 19.9169 27.0333 20.3836 27.0333H23.3335C24.2669 27.0333 25.2835 26.3334 25.5169 25.4L27.3835 19.7C27.7669 18.6166 27.0669 17.6667 25.9002 17.6667H22.7836C22.3169 17.6667 21.9336 17.2835 22.0002 16.7335L22.3835 14.2335C22.5335 13.5335 22.0669 12.7501 21.3669 12.5167C20.7502 12.2834 19.9669 12.6 19.6502 13.0667L16.4502 17.8166" stroke="#292929" stroke-width="2" stroke-miterlimit="10"/>
<path d="M12.5 24.6999V17.0666C12.5 15.9666 12.9667 15.5833 14.0667 15.5833H14.85C15.9333 15.5833 16.4167 15.9666 16.4167 17.0666V24.6999C16.4167 25.7832 15.95 26.1833 14.85 26.1833H14.0667C12.9667 26.1833 12.5 25.7999 12.5 24.6999Z" stroke="#292929" stroke-width="2" stroke-linecap="round" stroke-linejoin="round"/>
</svg>
