<svg width="36" height="36" viewBox="0 0 36 36" fill="none" xmlns="http://www.w3.org/2000/svg">
<path d="M4.64006 30.2734L5.09405 29.3824L4.64006 30.2734ZM1.72662 27.3599L0.835617 27.8139H0.835617L1.72662 27.3599ZM27.3599 1.72662L27.8139 0.835617V0.835617L27.3599 1.72662ZM30.2734 4.64006L29.3824 5.09405L30.2734 4.64006ZM4.64006 1.72662L5.09405 2.61763V2.61763L4.64006 1.72662ZM1.72662 4.64006L2.61763 5.09405H2.61763L1.72662 4.64006ZM30 14.3333C30 14.8856 30.4477 15.3333 31 15.3333C31.5523 15.3333 32 14.8856 32 14.3333H30ZM14.3333 32C14.8856 32 15.3333 31.5523 15.3333 31C15.3333 30.4477 14.8856 30 14.3333 30V32ZM9.33333 8.33333C8.78105 8.33333 8.33333 8.78105 8.33333 9.33333C8.33333 9.88562 8.78105 10.3333 9.33333 10.3333V8.33333ZM22.6667 10.3333C23.219 10.3333 23.6667 9.88562 23.6667 9.33333C23.6667 8.78105 23.219 8.33333 22.6667 8.33333V10.3333ZM9.33333 15C8.78105 15 8.33333 15.4477 8.33333 16C8.33333 16.5523 8.78105 17 9.33333 17V15ZM22.6667 17C23.219 17 23.6667 16.5523 23.6667 16C23.6667 15.4477 23.219 15 22.6667 15V17ZM9.33333 21.6667C8.78105 21.6667 8.33333 22.1144 8.33333 22.6667C8.33333 23.219 8.78105 23.6667 9.33333 23.6667V21.6667ZM16 23.6667C16.5523 23.6667 17 23.219 17 22.6667C17 22.1144 16.5523 21.6667 16 21.6667V23.6667ZM19.7554 31.8276L20.7041 32.1439L19.7554 31.8276ZM20.5267 29.5137L19.578 29.1975L19.578 29.1975L20.5267 29.5137ZM21.3226 28.2259L22.0297 28.933H22.0297L21.3226 28.2259ZM29.009 20.5395L28.3019 19.8324V19.8324L29.009 20.5395ZM33.1271 24.6577L33.8343 25.3648L33.1271 24.6577ZM25.4407 32.3441L24.7336 31.637L25.4407 32.3441ZM24.153 33.14L24.4692 34.0887H24.4692L24.153 33.14ZM21.839 33.9113L22.1552 34.86H22.1552L21.839 33.9113ZM25.0186 32.7381L25.6208 33.5364H25.6208L25.0186 32.7381ZM24.6942 32.9386L24.2495 32.0429H24.2495L24.6942 32.9386ZM33.1271 20.5395L32.42 21.2466L33.1271 20.5395ZM34.1192 21.6843L35.0152 21.2403V21.2403L34.1192 21.6843ZM34.1192 23.5129L35.0152 23.9569L34.1192 23.5129ZM30.1538 19.5474L30.5978 20.4435H30.5978L30.1538 19.5474ZM31.9823 19.5474L31.5383 20.4435L31.9823 19.5474ZM20.7281 28.9725L21.6237 29.4172V29.4172L20.7281 28.9725ZM20.9285 28.6481L20.1302 28.0458L20.9285 28.6481ZM19.3717 33.6711L20.3136 33.3352L19.3717 33.6711ZM19.9956 34.295L19.6597 35.2369L19.9956 34.295ZM11.6667 2H20.3333V0H11.6667V2ZM2 20.3333V11.6667H0V20.3333H2ZM11.6667 30C9.78332 30 8.43096 29.9992 7.36944 29.9125C6.3196 29.8267 5.64262 29.6619 5.09405 29.3824L4.18607 31.1644C5.06358 31.6115 6.03306 31.81 7.20658 31.9058C8.36843 32.0008 9.81633 32 11.6667 32V30ZM0 20.3333C0 22.1837 -0.000777721 23.6316 0.094149 24.7934C0.19003 25.9669 0.388505 26.9364 0.835617 27.8139L2.61763 26.9059C2.33812 26.3574 2.17328 25.6804 2.08751 24.6306C2.00078 23.569 2 22.2167 2 20.3333H0ZM5.09405 29.3824C4.0278 28.8391 3.16091 27.9722 2.61763 26.9059L0.835617 27.8139C1.57065 29.2565 2.7435 30.4294 4.18607 31.1644L5.09405 29.3824ZM20.3333 2C22.2167 2 23.569 2.00078 24.6306 2.08751C25.6804 2.17328 26.3574 2.33812 26.9059 2.61763L27.8139 0.835617C26.9364 0.388505 25.9669 0.19003 24.7934 0.094149C23.6316 -0.000777721 22.1837 0 20.3333 0V2ZM32 11.6667C32 9.81633 32.0008 8.36843 31.9058 7.20658C31.81 6.03306 31.6115 5.06358 31.1644 4.18607L29.3824 5.09405C29.6619 5.64262 29.8267 6.3196 29.9125 7.36944C29.9992 8.43096 30 9.78332 30 11.6667H32ZM26.9059 2.61763C27.9722 3.16091 28.8391 4.0278 29.3824 5.09405L31.1644 4.18607C30.4294 2.7435 29.2565 1.57065 27.8139 0.835617L26.9059 2.61763ZM11.6667 0C9.81633 0 8.36843 -0.000777721 7.20658 0.094149C6.03306 0.19003 5.06358 0.388505 4.18607 0.835617L5.09405 2.61763C5.64262 2.33812 6.3196 2.17328 7.36944 2.08751C8.43096 2.00078 9.78332 2 11.6667 2V0ZM2 11.6667C2 9.78332 2.00078 8.43096 2.08751 7.36944C2.17328 6.3196 2.33812 5.64262 2.61763 5.09405L0.835617 4.18607C0.388505 5.06358 0.19003 6.03306 0.094149 7.20658C-0.000777721 8.36843 0 9.81633 0 11.6667H2ZM4.18607 0.835617C2.7435 1.57065 1.57065 2.7435 0.835617 4.18607L2.61763 5.09405C3.16091 4.0278 4.0278 3.16091 5.09405 2.61763L4.18607 0.835617ZM30 11.6667V14.3333H32V11.6667H30ZM11.6667 32H14.3333V30H11.6667V32ZM9.33333 10.3333H22.6667V8.33333H9.33333V10.3333ZM9.33333 17H22.6667V15H9.33333V17ZM9.33333 23.6667H16V21.6667H9.33333V23.6667ZM20.7041 32.1439L21.4754 29.8299L19.578 29.1975L18.8067 31.5114L20.7041 32.1439ZM22.0297 28.933L29.7161 21.2466L28.3019 19.8324L20.6155 27.5188L22.0297 28.933ZM32.42 23.9506L24.7336 31.637L26.1479 33.0512L33.8343 25.3648L32.42 23.9506ZM23.8368 32.1913L21.5228 32.9626L22.1552 34.86L24.4692 34.0887L23.8368 32.1913ZM24.7336 31.637C24.5097 31.861 24.4625 31.905 24.4163 31.9398L25.6208 33.5364C25.8037 33.3985 25.9616 33.2374 26.1479 33.0512L24.7336 31.637ZM24.4692 34.0887C24.7191 34.0054 24.9338 33.9361 25.1389 33.8343L24.2495 32.0429C24.1977 32.0686 24.1372 32.0911 23.8368 32.1913L24.4692 34.0887ZM24.4163 31.9398C24.364 31.9793 24.3082 32.0138 24.2495 32.0429L25.1389 33.8343C25.3084 33.7501 25.4698 33.6504 25.6208 33.5364L24.4163 31.9398ZM32.42 21.2466C33.0385 21.8651 33.1644 22.0097 33.2232 22.1284L35.0152 21.2403C34.774 20.7534 34.3385 20.3367 33.8343 19.8324L32.42 21.2466ZM33.8343 25.3648C34.3385 24.8605 34.774 24.4438 35.0152 23.9569L33.2232 23.0689C33.1644 23.1875 33.0385 23.3321 32.42 23.9506L33.8343 25.3648ZM33.2232 22.1284C33.37 22.4247 33.37 22.7725 33.2232 23.0689L35.0152 23.9569C35.4394 23.101 35.4394 22.0962 35.0152 21.2403L33.2232 22.1284ZM29.7161 21.2466C30.3345 20.6282 30.4791 20.5023 30.5978 20.4435L29.7098 18.6514C29.2229 18.8927 28.8061 19.3281 28.3019 19.8324L29.7161 21.2466ZM33.8343 19.8324C33.33 19.3282 32.9132 18.8927 32.4263 18.6514L31.5383 20.4435C31.657 20.5023 31.8016 20.6282 32.42 21.2466L33.8343 19.8324ZM30.5978 20.4435C30.8941 20.2966 31.242 20.2966 31.5383 20.4435L32.4263 18.6514C31.5705 18.2273 30.5656 18.2273 29.7098 18.6514L30.5978 20.4435ZM21.4754 29.8299C21.5755 29.5294 21.598 29.469 21.6237 29.4172L19.8324 28.5278C19.7305 28.7329 19.6613 28.9476 19.578 29.1975L21.4754 29.8299ZM20.6155 27.5188C20.4292 27.705 20.2682 27.863 20.1302 28.0458L21.7269 29.2503C21.7617 29.2041 21.8057 29.157 22.0297 28.933L20.6155 27.5188ZM21.6237 29.4172C21.6529 29.3585 21.6874 29.3026 21.7269 29.2503L20.1302 28.0458C20.0163 28.1969 19.9165 28.3582 19.8324 28.5278L21.6237 29.4172ZM18.8067 31.5114C18.6453 31.9955 18.5014 32.4241 18.4196 32.7724C18.3412 33.1059 18.2687 33.5552 18.4298 34.007L20.3136 33.3352C20.3554 33.4524 20.3071 33.483 20.3665 33.2299C20.4225 32.9916 20.5301 32.6658 20.7041 32.1439L18.8067 31.5114ZM21.5228 32.9626C21.0009 33.1366 20.675 33.2441 20.4368 33.3001C20.1836 33.3596 20.2142 33.3113 20.3315 33.3531L19.6597 35.2369C20.1114 35.398 20.5608 35.3255 20.8943 35.2471C21.2426 35.1653 21.6712 35.0213 22.1552 34.86L21.5228 32.9626ZM18.4298 34.007C18.6344 34.5807 19.0859 35.0323 19.6597 35.2369L20.3315 33.3531C20.3231 33.3501 20.3166 33.3435 20.3136 33.3352L18.4298 34.007Z" fill="black"/>
</svg>
