<svg width="40" height="40" viewBox="0 0 40 40" fill="none" xmlns="http://www.w3.org/2000/svg">
<path d="M18.333 26.9167V31.4167C18.333 35.1667 16.833 36.6667 13.083 36.6667H8.58301C4.83301 36.6667 3.33301 35.1667 3.33301 31.4167V26.9167C3.33301 23.1667 4.83301 21.6667 8.58301 21.6667H13.083C16.833 21.6667 18.333 23.1667 18.333 26.9167Z" stroke="#292929" stroke-width="2" stroke-linecap="round" stroke-linejoin="round"/>
<path d="M36.6667 25C36.6667 31.45 31.45 36.6667 25 36.6667L26.75 33.75" stroke="#292929" stroke-width="2" stroke-linecap="round" stroke-linejoin="round"/>
<path d="M3.33301 15C3.33301 8.55001 8.54967 3.33334 14.9997 3.33334L13.2497 6.25001" stroke="#292929" stroke-width="2" stroke-linecap="round" stroke-linejoin="round"/>
<path d="M29.167 18.3333C33.3091 18.3333 36.667 14.9755 36.667 10.8333C36.667 6.69121 33.3091 3.33334 29.167 3.33334C25.0249 3.33334 21.667 6.69121 21.667 10.8333C21.667 14.9755 25.0249 18.3333 29.167 18.3333Z" stroke="#292929" stroke-width="2" stroke-linecap="round" stroke-linejoin="round"/>
</svg>
