<svg width="40" height="40" viewBox="0 0 40 40" fill="none" xmlns="http://www.w3.org/2000/svg">
<path d="M36.0003 17H20.3337V23.1667H29.5003C29.3337 24.6667 28.3337 27 26.167 28.5C24.8337 29.5 22.8337 30.1667 20.3337 30.1667C16.0003 30.1667 12.167 27.3333 10.8337 23.1667C10.5003 22.1667 10.3337 21 10.3337 19.8333C10.3337 18.6667 10.5003 17.5 10.8337 16.5C11.0003 16.1667 11.0003 15.8333 11.167 15.6667C12.667 12.1667 16.167 9.66668 20.3337 9.66668C23.5003 9.66668 25.5003 11 26.8337 12.1667L31.5003 7.50001C28.667 5.00001 24.8337 3.33334 20.3337 3.33334C13.8337 3.33334 8.16699 7.00001 5.50033 12.5C4.33366 14.8333 3.66699 17.3333 3.66699 20C3.66699 22.6667 4.33366 25.1667 5.50033 27.5C8.16699 33 13.8337 36.6667 20.3337 36.6667C24.8337 36.6667 28.667 35.1667 31.3337 32.6667C34.5003 29.8333 36.3337 25.5 36.3337 20.3333C36.3337 19 36.167 18 36.0003 17Z" stroke="#292929" stroke-width="1.5" stroke-miterlimit="10" stroke-linecap="round" stroke-linejoin="round"/>
</svg>
