<svg width="301" height="111" viewBox="0 0 301 111" fill="none" xmlns="http://www.w3.org/2000/svg">
<g filter="url(#filter0_b_476_999)">
<path d="M110.875 110.988C108.949 110.988 106.99 110.609 105.113 109.816L9.12021 69.2895C3.49005 66.9115 0 61.6268 0 55.5C0 49.3732 3.49005 44.0885 9.12021 41.7105L105.113 1.16757C111.632 -1.59034 119.254 0.672136 123.222 6.53475L185.894 98.9164C187.244 100.915 189.862 101.691 192.084 100.75L288.077 60.2066C290.974 58.9845 291.188 56.2927 291.188 55.5C291.188 54.7073 290.958 52.0155 288.077 50.7934L192.084 10.2505C189.862 9.30918 187.261 10.0854 185.894 12.0836L170.502 34.7909C168.971 37.0369 165.925 37.6149 163.686 36.0956C161.448 34.5597 160.871 31.5046 162.386 29.2586L177.778 6.55127C181.762 0.688654 189.368 -1.57382 195.887 1.16757L291.88 41.7105C297.51 44.0885 301 49.3732 301 55.5C301 61.6268 297.51 66.9115 291.88 69.2895L195.887 109.832C189.368 112.59 181.746 110.328 177.778 104.465L115.106 12.0836C113.756 10.0854 111.138 9.30918 108.916 10.2505L12.9395 50.7934C10.0421 52.0155 9.8281 54.7073 9.8281 55.5C9.8281 56.2927 10.0586 58.9845 12.9395 60.2066L108.932 100.75C111.155 101.691 113.756 100.915 115.122 98.9164L130.63 76.0439C132.161 73.798 135.206 73.22 137.445 74.7393C139.684 76.2751 140.26 79.3303 138.746 81.5763L123.238 104.449C120.39 108.627 115.698 110.988 110.875 110.988Z" fill="url(#paint0_linear_476_999)" fill-opacity="0.6"/>
</g>
<defs>
<filter id="filter0_b_476_999" x="-40" y="-40" width="381" height="191" filterUnits="userSpaceOnUse" color-interpolation-filters="sRGB">
<feFlood flood-opacity="0" result="BackgroundImageFix"/>
<feGaussianBlur in="BackgroundImageFix" stdDeviation="20"/>
<feComposite in2="SourceAlpha" operator="in" result="effect1_backgroundBlur_476_999"/>
<feBlend mode="normal" in="SourceGraphic" in2="effect1_backgroundBlur_476_999" result="shape"/>
</filter>
<linearGradient id="paint0_linear_476_999" x1="150.5" y1="0" x2="150.5" y2="111" gradientUnits="userSpaceOnUse">
<stop stop-color="white"/>
<stop offset="0.555" stop-color="white" stop-opacity="0"/>
<stop offset="1" stop-color="white"/>
</linearGradient>
</defs>
</svg>
