<svg width="120" height="120" viewBox="0 0 120 120" fill="none" xmlns="http://www.w3.org/2000/svg">
<path d="M60.75 82.5V93" stroke="#F9C704" stroke-width="4" stroke-linecap="round" stroke-linejoin="round"/>
<path d="M35.75 110H85.75V105C85.75 99.5 81.25 95 75.75 95H45.75C40.25 95 35.75 99.5 35.75 105V110V110Z" stroke="#F9C704" stroke-width="4" stroke-miterlimit="10"/>
<path d="M30.75 110H90.75" stroke="#F9C704" stroke-width="4" stroke-linecap="round" stroke-linejoin="round"/>
<path d="M60 80C40.65 80 25 64.35 25 45V30C25 18.95 33.95 10 45 10H75C86.05 10 95 18.95 95 30V45C95 64.35 79.35 80 60 80Z" stroke="#F9C704" stroke-width="4" stroke-linecap="round" stroke-linejoin="round"/>
<path d="M27.3502 58.25C23.6002 57.05 20.3002 54.85 17.7002 52.25C13.2002 47.25 10.2002 41.25 10.2002 34.25C10.2002 27.25 15.7002 21.75 22.7002 21.75H25.9502C24.9502 24.05 24.4502 26.6 24.4502 29.25V44.25C24.4502 49.25 25.5002 53.95 27.3502 58.25Z" stroke="#F9C704" stroke-width="4" stroke-linecap="round" stroke-linejoin="round"/>
<path d="M92.6499 58.25C96.3999 57.05 99.6999 54.85 102.3 52.25C106.8 47.25 109.8 41.25 109.8 34.25C109.8 27.25 104.3 21.75 97.2999 21.75H94.0499C95.0499 24.05 95.5499 26.6 95.5499 29.25V44.25C95.5499 49.25 94.4999 53.95 92.6499 58.25Z" stroke="#F9C704" stroke-width="4" stroke-linecap="round" stroke-linejoin="round"/>
</svg>
