<svg width="107" height="111" viewBox="0 0 107 111" fill="none" xmlns="http://www.w3.org/2000/svg">
<path d="M53.5017 27.7731C45.8434 27.7731 39.6167 21.5432 39.6167 13.8882C39.6167 6.23309 45.8466 0 53.5017 0C61.1567 0 67.3866 6.2299 67.3866 13.885C67.3866 21.54 61.1567 27.7699 53.5017 27.7699V27.7731ZM53.5017 3.6187C47.8393 3.6187 43.2354 8.22577 43.2354 13.885C43.2354 19.5442 47.8425 24.1544 53.5017 24.1544C59.1609 24.1544 63.7711 19.5474 63.7711 13.885C63.7711 8.22258 59.164 3.6187 53.5017 3.6187Z" fill="white"/>
<path d="M39.4221 70.4234C38.7335 70.4234 38.0416 70.2895 37.3784 70.0121L3.27977 55.6553C1.28072 54.8136 0.0372925 52.9421 0.0372925 50.774C0.0372925 48.606 1.28072 46.7345 3.27977 45.8928L37.3784 31.5359C39.6931 30.5603 42.4 31.3606 43.8124 33.4361L66.073 66.1479C66.5544 66.8589 67.479 67.1299 68.2729 66.7983L102.372 52.4415C103.398 52.0079 103.478 51.0546 103.478 50.774C103.478 50.4935 103.398 49.537 102.372 49.1066L68.2729 34.7497C67.4822 34.4181 66.5576 34.6891 66.073 35.4001L60.6051 43.441C60.0631 44.238 58.979 44.4421 58.182 43.9033C57.3849 43.3613 57.1809 42.2773 57.7197 41.4802L63.1876 33.4393C64.6 31.3606 67.3068 30.5603 69.6215 31.5359L103.72 45.8928C105.719 46.7345 106.963 48.606 106.963 50.774C106.963 52.9421 105.722 54.8136 103.72 55.6553L69.6215 70.0121C67.3068 70.9877 64.6 70.1875 63.1876 68.1119L40.927 35.4001C40.4456 34.6891 39.521 34.415 38.7271 34.7497L4.63161 49.1066C3.60498 49.5402 3.52527 50.4935 3.52527 50.774C3.52527 51.0546 3.60498 52.0079 4.63161 52.4415L38.7303 66.7983C39.521 67.1331 40.4456 66.8589 40.9302 66.1479L46.4395 58.0497C46.9815 57.2526 48.0656 57.0486 48.8626 57.5906C49.6597 58.1326 49.8638 59.2166 49.3217 60.0137L43.8124 68.1119C42.8049 69.5944 41.1374 70.4266 39.4221 70.4266V70.4234Z" fill="#FFC200"/>
<path d="M53.5207 111C51.6874 111 50.1634 109.645 49.5449 107.461L41.7368 76.2763C41.4753 75.3517 42.0141 74.392 42.9387 74.1306C43.8602 73.8691 44.823 74.4079 45.0845 75.3325L52.8926 106.517C53.0743 107.148 53.967 107.148 54.1456 106.517L62.8081 75.4154C63.0696 74.4908 64.0324 73.9552 64.9538 74.2135C65.8784 74.4749 66.4173 75.4378 66.1558 76.3592L57.4933 107.461C56.8747 109.645 55.3539 111 53.5175 111H53.5207Z" fill="white"/>
</svg>
