<svg width="35" height="37" viewBox="0 0 35 37" fill="none" xmlns="http://www.w3.org/2000/svg">
<g clip-path="url(#clip0_490_1236)">
<path d="M17.4999 9.52883C15.0858 9.52883 13.1206 7.61518 13.1206 5.26442C13.1206 2.91365 15.0837 1 17.4999 1C19.9161 1 21.8792 2.91365 21.8792 5.26442C21.8792 7.61518 19.914 9.52883 17.4999 9.52883Z" fill="#38383B"/>
<path d="M21.2159 24.2231C21.5187 24.3068 21.7292 24.6393 21.6433 24.9363L18.8018 34.8706C18.5999 35.567 18.0995 36.0021 17.4981 36.0021C16.8967 36.0021 16.3963 35.5691 16.1944 34.8706L13.6321 24.9091C13.5462 24.6142 13.7223 24.3068 14.0252 24.2231" fill="#38383B"/>
<path d="M23.823 22.5773L22.7771 23.0081C22.6632 23.0541 22.543 23.0897 22.427 23.1106C21.8836 23.2089 21.323 23.0479 20.9214 22.6819C20.829 22.5982 20.7431 22.5062 20.6701 22.3995L17.5043 17.8674L14.3299 22.3995C13.9991 22.8743 13.4536 23.1357 12.8909 23.1357C12.6654 23.1357 12.4399 23.096 12.2229 23.006L1.061 18.4321C0.408076 18.1644 0 17.5683 0 16.8761C0 16.1838 0.405928 15.5898 1.061 15.32L12.2229 10.744C12.3003 10.7105 12.3819 10.6875 12.4592 10.6645C13.1572 10.4909 13.9154 10.7566 14.3299 11.3505L17.485 15.8638L21.5271 21.7888C21.5271 21.7888 21.5378 21.8055 21.5399 21.8139C21.5851 21.8871 21.6323 21.9582 21.6838 22.0231C22.0125 22.4434 22.5322 22.7132 23.1164 22.7132C23.3634 22.7132 23.604 22.6651 23.8209 22.5752L23.823 22.5773Z" fill="url(#paint0_linear_490_1236)"/>
<path d="M35.0002 16.876C35.0002 17.5662 34.5943 18.1622 33.937 18.432L23.8232 22.5772C23.6063 22.6671 23.3679 22.7153 23.1187 22.7153C22.5346 22.7153 22.0148 22.4434 21.6862 22.0251L21.5423 21.8159C21.5423 21.8159 21.5337 21.7992 21.5294 21.7908L17.4873 15.8658L20.6724 11.3525C21.1342 10.6896 22.0212 10.4344 22.7794 10.746L33.9392 15.3221C34.5964 15.5898 35.0023 16.1858 35.0023 16.8781L35.0002 16.876Z" fill="url(#paint1_linear_490_1236)"/>
</g>
<defs>
<linearGradient id="paint0_linear_490_1236" x1="2.16924" y1="12.2854" x2="23.6079" y2="22.4119" gradientUnits="userSpaceOnUse">
<stop stop-color="#F9C704"/>
<stop offset="1" stop-color="#F9C704"/>
</linearGradient>
<linearGradient id="paint1_linear_490_1236" x1="19.7704" y1="19.896" x2="33.9458" y2="9.87108" gradientUnits="userSpaceOnUse">
<stop stop-color="#FF792E"/>
<stop offset="0.12" stop-color="#FD8D22"/>
<stop offset="0.32" stop-color="#FBA615"/>
<stop offset="0.51" stop-color="#FAB80B"/>
<stop offset="0.73" stop-color="#F9C305"/>
<stop offset="0.96" stop-color="#F9C704"/>
<stop offset="0.97" stop-color="#FAB011"/>
<stop offset="0.98" stop-color="#FD8629"/>
<stop offset="0.99" stop-color="#FE7C2F"/>
<stop offset="1" stop-color="#FF7931"/>
</linearGradient>
<clipPath id="clip0_490_1236">
<rect width="35" height="35" fill="white" transform="translate(0 1)"/>
</clipPath>
</defs>
</svg>
