<svg width="120" height="120" viewBox="0 0 120 120" fill="none" xmlns="http://www.w3.org/2000/svg">
<path d="M48.25 69L56.3 75.25C57.35 76.3 59.7 76.7997 61.25 76.7997H71.15C74.25 76.7997 77.65 74.4499 78.45 71.3499L84.7 52.3997C86 48.7497 83.65 45.6498 79.75 45.6498H69.35C67.8 45.6498 66.5001 44.3498 66.7501 42.5498L68.05 34.2497C68.55 31.8997 67 29.2996 64.65 28.5496C62.55 27.7496 59.95 28.7995 58.95 30.3495L48.3 46.1997" stroke="#F9C704" stroke-width="4" stroke-miterlimit="10"/>
<path d="M35 69.0002V43.5498C35 39.8998 36.55 38.5999 40.2 38.5999H42.8C46.45 38.5999 48 39.8998 48 43.5498V69.0002C48 72.6502 46.45 73.9502 42.8 73.9502H40.2C36.55 73.9502 35 72.6502 35 69.0002Z" stroke="#F9C704" stroke-width="4" stroke-linecap="round" stroke-linejoin="round"/>
<path d="M90 94.2999H86.2C82.2 94.2999 78.4 95.8499 75.6 98.6499L67.05 107.1C63.15 110.95 56.8 110.95 52.9 107.1L44.35 98.6499C41.55 95.8499 37.7 94.2999 33.75 94.2999H30C21.7 94.2999 15 87.6501 15 79.4501V24.8999C15 16.6999 21.7 10.05 30 10.05H90C98.3 10.05 105 16.6999 105 24.8999V79.4501C105 87.6001 98.3 94.2999 90 94.2999Z" stroke="#F9C704" stroke-width="4" stroke-miterlimit="10" stroke-linecap="round" stroke-linejoin="round"/>
</svg>
