<svg width="75" height="78" viewBox="0 0 75 78" fill="none" xmlns="http://www.w3.org/2000/svg">
<path d="M37.5011 19.4808C32.1295 19.4808 27.7619 15.111 27.7619 9.74154C27.7619 4.3721 32.1317 6.48499e-05 37.5011 6.48499e-05C42.8706 6.48499e-05 47.2404 4.36986 47.2404 9.73931C47.2404 15.1088 42.8706 19.4785 37.5011 19.4785V19.4808ZM37.5011 2.53831C33.5294 2.53831 30.3001 5.76981 30.3001 9.73931C30.3001 13.7088 33.5316 16.9425 37.5011 16.9425C41.4706 16.9425 44.7044 13.711 44.7044 9.73931C44.7044 5.76757 41.4729 2.53831 37.5011 2.53831Z" fill="#292929"/>
<path d="M27.6255 49.3967C27.1424 49.3967 26.6571 49.3028 26.192 49.1082L2.27435 39.038C0.872171 38.4476 0 37.1349 0 35.6142C0 34.0935 0.872171 32.7807 2.27435 32.1903L26.192 22.1201C27.8155 21.4358 29.7142 21.9971 30.7049 23.453L46.319 46.3978C46.6567 46.8965 47.3052 47.0866 47.8621 46.854L71.7797 36.7838C72.4998 36.4796 72.5557 35.811 72.5557 35.6142C72.5557 35.4174 72.4998 34.7465 71.7797 34.4446L47.8621 24.3743C47.3075 24.1418 46.6589 24.3319 46.319 24.8306L42.4837 30.4706C42.1035 31.0297 41.3431 31.1728 40.7841 30.7949C40.225 30.4147 40.0819 29.6543 40.4598 29.0952L44.2951 23.4552C45.2858 21.9971 47.1845 21.4358 48.808 22.1201L72.7256 32.1903C74.1278 32.7807 75 34.0935 75 35.6142C75 37.1349 74.1301 38.4476 72.7256 39.038L48.808 49.1082C47.1845 49.7925 45.2858 49.2312 44.2951 47.7754L28.681 24.8306C28.3433 24.3319 27.6948 24.1395 27.1379 24.3743L3.22256 34.4446C2.50246 34.7487 2.44655 35.4174 2.44655 35.6142C2.44655 35.811 2.50246 36.4796 3.22256 36.7838L27.1402 46.854C27.6948 47.0888 28.3433 46.8965 28.6832 46.3978L32.5476 40.7175C32.9278 40.1584 33.6882 40.0153 34.2472 40.3955C34.8063 40.7756 34.9495 41.536 34.5693 42.0951L30.7049 47.7754C29.9982 48.8153 28.8286 49.3989 27.6255 49.3989V49.3967Z" fill="#FFC200"/>
<path d="M37.5145 77.858C36.2286 77.858 35.1596 76.9076 34.7258 75.3757L29.249 53.5021C29.0656 52.8536 29.4435 52.1804 30.0921 51.997C30.7384 51.8137 31.4138 52.1916 31.5971 52.8401L37.0739 74.7137C37.2014 75.1565 37.8276 75.1565 37.9528 74.7137L44.0289 52.8983C44.2123 52.2497 44.8877 51.874 45.534 52.0552C46.1825 52.2386 46.5605 52.9139 46.3771 53.5602L40.301 75.3757C39.8671 76.9076 38.8004 77.858 37.5122 77.858H37.5145Z" fill="#292929"/>
</svg>
