<svg width="120" height="120" viewBox="0 0 120 120" fill="none" xmlns="http://www.w3.org/2000/svg">
<path d="M66.4998 15.7542L73.0998 28.9542C73.9998 30.7542 76.3998 32.5542 78.3998 32.8542L90.3499 34.8542C97.9999 36.1542 99.7998 41.6542 94.2998 47.1542L84.9998 56.4542C83.4498 58.0042 82.5498 61.0542 83.0498 63.2542L85.6999 74.8042C87.7999 83.9042 82.9499 87.4542 74.8999 82.7042L63.6998 76.0542C61.6498 74.8542 58.3499 74.8542 56.2999 76.0542L45.0998 82.7042C37.0498 87.4542 32.1998 83.9042 34.2998 74.8042L36.9499 63.2542C37.4499 61.1042 36.5498 58.0542 34.9998 56.4542L25.6999 47.1542C20.1999 41.6542 21.9998 36.1042 29.6498 34.8542L41.5999 32.8542C43.5999 32.5042 45.9999 30.7542 46.8999 28.9542L53.4999 15.7542C57.0499 8.60419 62.9498 8.60419 66.4998 15.7542Z" stroke="#F9C704" stroke-width="4" stroke-linecap="round" stroke-linejoin="round"/>
<path d="M75 97L75 110" stroke="#F9C704" stroke-width="4" stroke-linecap="round" stroke-linejoin="round"/>
<path d="M44 97L44 110" stroke="#F9C704" stroke-width="4" stroke-linecap="round" stroke-linejoin="round"/>
<path d="M60 89L60 110" stroke="#F9C704" stroke-width="4" stroke-linecap="round" stroke-linejoin="round"/>
</svg>
