<svg width="122" height="41" viewBox="0 0 122 41" fill="none" xmlns="http://www.w3.org/2000/svg">
<path d="M19.3234 9.62614C16.6561 9.62614 14.4871 7.46756 14.4871 4.81307C14.4871 2.15858 16.6575 0 19.3234 0C21.9892 0 24.1597 2.15858 24.1597 4.81307C24.1597 7.46756 21.9907 9.62614 19.3234 9.62614Z" fill="white"/>
<path d="M23.429 26.2095C23.7632 26.3034 23.9971 26.6794 23.9012 27.0133L20.7632 38.2255C20.5394 39.012 19.9874 39.5022 19.3235 39.5022C18.6595 39.5022 18.1075 39.0135 17.8838 38.2255L15.0552 26.9844C14.9608 26.6519 15.1554 26.3049 15.4896 26.2109" fill="white"/>
<path d="M26.3069 24.3501L25.152 24.8359C25.0256 24.888 24.8934 24.927 24.7655 24.9516C24.167 25.0615 23.5452 24.8807 23.1035 24.4687C23.0018 24.3733 22.9074 24.2706 22.8275 24.1506L19.3307 19.0354L15.8251 24.1506C15.459 24.6856 14.8576 24.9819 14.2372 24.9819C13.9888 24.9819 13.7389 24.9357 13.4992 24.8345L1.17094 19.673C0.448909 19.3708 0 18.6971 0 17.9178C0 17.1385 0.448909 16.4647 1.17094 16.1626L13.4978 10.9982C13.5835 10.962 13.6736 10.9346 13.7593 10.91C14.5307 10.7148 15.366 11.0141 15.8237 11.6835L19.3074 16.777L23.7718 23.4639C23.7776 23.4725 23.7834 23.4827 23.7878 23.4913C23.8372 23.5737 23.8895 23.6533 23.9476 23.727C24.3108 24.2012 24.8846 24.5063 25.5297 24.5063C25.8028 24.5063 26.0672 24.4513 26.3069 24.3501Z" fill="url(#paint0_linear_577_1224)"/>
<path d="M38.6483 17.9178C38.6483 18.6971 38.1994 19.3708 37.4745 19.673L26.3055 24.3516C26.0658 24.4528 25.8014 24.5077 25.5283 24.5077C24.8832 24.5077 24.3079 24.2027 23.9462 23.7284L23.7864 23.4928C23.7835 23.4841 23.7777 23.474 23.7704 23.4653L19.306 16.7785L22.8247 11.6849C23.3346 10.936 24.3152 10.6483 25.1506 10.9996L37.4745 16.164C38.1994 16.4662 38.6483 17.1399 38.6483 17.9192V17.9178Z" fill="url(#paint1_linear_577_1224)"/>
<path d="M52.6124 14.0156L49.8899 9.3645H47.8792V14.0156H45.225V0.615967H50.6104C51.854 0.615967 52.9116 1.04971 53.7847 1.91719C54.6564 2.78467 55.0923 3.83143 55.0923 5.05602C55.0923 5.88591 54.8554 6.65507 54.3804 7.36207C53.9068 8.07051 53.2777 8.60257 52.4961 8.95968L55.4772 14.0142H52.6109L52.6124 14.0156ZM47.8807 3.08539V7.04833H50.6119C51.1116 7.04833 51.5417 6.85459 51.9005 6.46423C52.2593 6.07531 52.4395 5.60542 52.4395 5.05747C52.4395 4.50951 52.2593 4.04251 51.9005 3.65938C51.5417 3.27624 51.1116 3.08539 50.6119 3.08539H47.8807Z" fill="#F9C704"/>
<path d="M58.5368 10.245C58.8695 11.445 59.7746 12.045 61.2491 12.045C62.1978 12.045 62.9155 11.7255 63.4036 11.0879L65.4041 12.2359C64.4554 13.6022 63.0578 14.2846 61.2114 14.2846C59.6206 14.2846 58.345 13.806 57.3833 12.8489C56.4215 11.8918 55.9407 10.686 55.9407 9.23152C55.9407 7.77704 56.4143 6.58715 57.3644 5.6228C58.3131 4.6599 59.5319 4.177 61.0196 4.177C62.4302 4.177 63.5939 4.66279 64.5106 5.63148C65.4273 6.60161 65.8864 7.80162 65.8864 9.23007C65.8864 9.5496 65.8544 9.88791 65.7905 10.245H58.5382H58.5368ZM58.499 8.33079H63.4036C63.2627 7.68018 62.9707 7.19439 62.529 6.87631C62.0859 6.55679 61.5833 6.39775 61.0196 6.39775C60.3528 6.39775 59.8007 6.56691 59.3649 6.90523C58.929 7.24354 58.6399 7.71921 58.499 8.33079Z" fill="#F9C704"/>
<path d="M73.56 4.44446H76.2912L72.636 14.0157H69.8089L66.1537 4.44446H68.8849L71.2166 11.1428L73.56 4.44446Z" fill="#F9C704"/>
<path d="M79.1967 10.245C79.5294 11.445 80.4345 12.045 81.909 12.045C82.8577 12.045 83.5754 11.7255 84.0635 11.0879L86.064 12.2359C85.1153 13.6022 83.7177 14.2846 81.8713 14.2846C80.2805 14.2846 79.0049 13.806 78.0432 12.8489C77.0815 11.8918 76.6006 10.686 76.6006 9.23152C76.6006 7.77704 77.0742 6.58715 78.0243 5.6228C78.973 4.6599 80.1918 4.177 81.6795 4.177C83.0901 4.177 84.2538 4.66279 85.1705 5.63148C86.0872 6.60161 86.5463 7.80162 86.5463 9.23007C86.5463 9.5496 86.5143 9.88791 86.4504 10.245H79.1982H79.1967ZM79.1575 8.33079H84.0621C83.9211 7.68018 83.6291 7.19439 83.1875 6.87631C82.7444 6.55679 82.2417 6.39775 81.678 6.39775C81.0112 6.39775 80.4592 6.56691 80.0233 6.90523C79.5875 7.24354 79.2984 7.71921 79.1575 8.33079Z" fill="#F9C704"/>
<path d="M93.6228 4.17554C94.6746 4.17554 95.5434 4.52687 96.2291 5.22808C96.9148 5.93074 97.2577 6.89942 97.2577 8.13848V14.0157H94.7763V8.44498C94.7763 7.80739 94.6035 7.31871 94.2577 6.98039C93.9119 6.64207 93.45 6.47291 92.8732 6.47291C92.2311 6.47291 91.7197 6.67099 91.3347 7.06569C90.9497 7.46184 90.758 8.05462 90.758 8.84547V14.0142H88.2766V4.44446H90.758V5.51724C91.3609 4.62374 92.3168 4.17698 93.6243 4.17698L93.6228 4.17554Z" fill="#F9C704"/>
<path d="M105.723 4.44446H108.204V14.0157H105.723V12.9443C105.12 13.8378 104.166 14.2846 102.857 14.2846C101.805 14.2846 100.936 13.9332 100.25 13.232C99.5647 12.5308 99.2218 11.5607 99.2218 10.3216V4.44446H101.703V10.0151C101.703 10.6542 101.876 11.1414 102.223 11.4797C102.569 11.818 103.031 11.9872 103.608 11.9872C104.248 11.9872 104.761 11.7891 105.146 11.3944C105.531 10.9997 105.723 10.4055 105.723 9.61464V4.44446Z" fill="#F9C704"/>
<path d="M112.57 10.245C112.903 11.445 113.808 12.045 115.282 12.045C116.231 12.045 116.949 11.7255 117.437 11.0879L119.437 12.2359C118.489 13.6022 117.091 14.2846 115.245 14.2846C113.654 14.2846 112.378 13.806 111.416 12.8489C110.455 11.8918 109.974 10.686 109.974 9.23152C109.974 7.77704 110.447 6.58715 111.398 5.6228C112.346 4.6599 113.565 4.177 115.053 4.177C116.463 4.177 117.627 4.66279 118.544 5.63148C119.461 6.60161 119.92 7.80162 119.92 9.23007C119.92 9.5496 119.888 9.88791 119.824 10.245H112.571H112.57ZM112.532 8.33079H117.437C117.296 7.68018 117.004 7.19439 116.562 6.87631C116.119 6.55679 115.616 6.39775 115.053 6.39775C114.386 6.39775 113.834 6.56691 113.398 6.90523C112.962 7.24354 112.673 7.71921 112.532 8.33079Z" fill="#F9C704"/>
<path d="M53.3635 24.395C54.5431 25.0717 55.1329 26.0924 55.1329 27.4587C55.1329 28.5951 54.7291 29.5262 53.9213 30.2534C53.1136 30.9806 52.1199 31.345 50.9402 31.345H45.2279V17.9453H50.5364C51.6899 17.9453 52.6618 18.2995 53.4506 19.008C54.2395 19.7164 54.6332 20.6186 54.6332 21.7174C54.6332 22.8162 54.2104 23.7213 53.3635 24.3979V24.395ZM50.5349 20.4133H47.8807V23.3613H50.5349C50.9446 23.3613 51.2874 23.221 51.5635 22.9406C51.8395 22.6601 51.9775 22.3087 51.9775 21.888C51.9775 21.4673 51.8424 21.116 51.5736 20.8355C51.3049 20.555 50.9577 20.4147 50.5349 20.4147V20.4133ZM50.9388 28.8756C51.3877 28.8756 51.7596 28.7252 52.0545 28.4259C52.3494 28.1266 52.4976 27.7464 52.4976 27.2866C52.4976 26.8269 52.3494 26.4669 52.0545 26.1661C51.7596 25.8669 51.3877 25.7165 50.9388 25.7165H47.8807V28.8756H50.9388Z" fill="white"/>
<path d="M63.3077 21.7723H65.7891V31.3435H63.3077V30.2707C62.7048 31.1642 61.7503 31.611 60.4414 31.611C59.3896 31.611 58.5208 31.2597 57.8351 30.5584C57.1494 29.8572 56.8065 28.8871 56.8065 27.6481V21.7709H59.2879V27.3415C59.2879 27.9806 59.4607 28.4678 59.808 28.8061C60.1537 29.1445 60.6157 29.3136 61.1925 29.3136C61.8331 29.3136 62.346 29.1155 62.7309 28.7208C63.1159 28.3247 63.3077 27.7319 63.3077 26.9411V21.7723Z" fill="white"/>
<path d="M71.0685 29.0274H75.3383V31.3435H67.7533V29.6997L71.808 24.0885H67.9422V21.7723H75.1479V23.4133L71.0671 29.0274H71.0685Z" fill="white"/>
<path d="M79.9741 29.0274H84.2438V31.3435H76.6588V29.6997L80.7135 24.0885H76.8477V21.7723H84.0535V23.4133L79.9726 29.0274H79.9741Z" fill="white"/>
<path d="M47.1688 35.4092C47.7572 35.4092 48.2424 35.6174 48.6274 36.0323C49.0124 36.4473 49.2041 36.9562 49.2041 37.5576C49.2041 38.1591 49.0124 38.668 48.6274 39.083C48.2424 39.4979 47.7572 39.7061 47.1688 39.7061H45.5475V35.4106H47.1688V35.4092ZM47.1688 39.3981C47.67 39.3981 48.0811 39.2218 48.4022 38.8675C48.7233 38.5133 48.8831 38.0767 48.8831 37.5576C48.8831 37.0386 48.7233 36.6005 48.4022 36.2477C48.0811 35.8935 47.67 35.7171 47.1688 35.7171H45.8744V39.3996H47.1688V39.3981Z" fill="#EFEFEF"/>
<path d="M50.2763 37.2381C50.4608 36.8087 50.8051 36.5933 51.3063 36.5933V36.8882C51.0143 36.8882 50.7702 36.9807 50.5726 37.1672C50.375 37.3538 50.2763 37.6299 50.2763 37.9986V39.7046H49.9683V36.6352H50.2763V37.2366V37.2381Z" fill="#EFEFEF"/>
<path d="M52.2564 35.8241C52.207 35.8718 52.1489 35.895 52.0835 35.895C52.0181 35.895 51.96 35.8718 51.9106 35.8241C51.8612 35.7764 51.8365 35.7186 51.8365 35.6492C51.8365 35.5841 51.8612 35.5277 51.9106 35.48C51.96 35.4323 52.0181 35.4092 52.0835 35.4092C52.1489 35.4092 52.207 35.4323 52.2564 35.48C52.3058 35.5277 52.3305 35.5827 52.3305 35.6492C52.3305 35.7186 52.3058 35.7764 52.2564 35.8241ZM51.9295 39.7061V36.6367H52.2375V39.7061H51.9295Z" fill="#EFEFEF"/>
<path d="M55.4511 36.6367H55.7779L54.4763 39.7062H54.1L52.7925 36.6367H53.1252L54.283 39.3881L55.4496 36.6367H55.4511Z" fill="#EFEFEF"/>
<path d="M56.6656 35.8241C56.6162 35.8718 56.5581 35.895 56.4927 35.895C56.4273 35.895 56.3692 35.8718 56.3198 35.8241C56.2704 35.7764 56.2457 35.7186 56.2457 35.6492C56.2457 35.5841 56.2704 35.5277 56.3198 35.48C56.3692 35.4323 56.4273 35.4092 56.4927 35.4092C56.5581 35.4092 56.6162 35.4323 56.6656 35.48C56.715 35.5277 56.7397 35.5827 56.7397 35.6492C56.7397 35.7186 56.715 35.7764 56.6656 35.8241ZM56.3387 39.7061V36.6367H56.6467V39.7061H56.3387Z" fill="#EFEFEF"/>
<path d="M59.0089 36.5687C59.375 36.5687 59.6656 36.6801 59.882 36.9027C60.0985 37.1254 60.206 37.4232 60.206 37.7962V39.7047H59.8907V37.7962C59.8907 37.5099 59.8123 37.283 59.6539 37.1152C59.4956 36.9475 59.2733 36.8637 58.9842 36.8637C58.6675 36.8637 58.4089 36.9678 58.207 37.1774C58.005 37.3871 57.9048 37.6892 57.9048 38.0854V39.7061H57.5968V36.6367H57.9048V37.2193C58.1271 36.7856 58.4946 36.5687 59.0089 36.5687Z" fill="#EFEFEF"/>
<path d="M63.8132 36.6367H64.1212V39.5586C64.1212 40.0039 63.976 40.3567 63.6839 40.6141C63.3919 40.8714 63.0258 41.0001 62.5856 41.0001C62.2326 41.0001 61.9304 40.935 61.6791 40.8035C61.4278 40.6719 61.2447 40.4926 61.13 40.2627L61.4016 40.1095C61.5992 40.5071 61.9944 40.7051 62.5856 40.7051C62.9677 40.7051 63.2685 40.6025 63.4864 40.3957C63.7043 40.189 63.8132 39.9099 63.8132 39.5586V38.9933C63.6854 39.2348 63.5053 39.4256 63.2743 39.5644C63.0418 39.7032 62.7803 39.7726 62.4883 39.7726C62.0438 39.7726 61.6675 39.6179 61.3566 39.3085C61.0457 38.9991 60.8903 38.6203 60.8903 38.1707C60.8903 37.721 61.0457 37.3408 61.3566 37.0314C61.6675 36.722 62.0438 36.5673 62.4883 36.5673C62.7803 36.5673 63.0418 36.6367 63.2743 36.7755C63.5067 36.9143 63.6869 37.1051 63.8132 37.3465V36.6352V36.6367ZM61.5774 39.0974C61.8302 39.3504 62.1396 39.4777 62.5057 39.4777C62.8718 39.4777 63.1813 39.3504 63.4341 39.0974C63.6869 38.8444 63.8132 38.535 63.8132 38.1707C63.8132 37.8063 63.6869 37.4969 63.4341 37.2439C63.1813 36.9909 62.8718 36.8637 62.5057 36.8637C62.1396 36.8637 61.8302 36.9909 61.5774 37.2439C61.3246 37.4969 61.1982 37.8063 61.1982 38.1707C61.1982 38.535 61.3246 38.8444 61.5774 39.0974Z" fill="#EFEFEF"/>
<path d="M69.5053 39.7061L68.4651 37.9451H67.1068V39.7061H66.7799V35.4106H68.4826C68.8312 35.4106 69.132 35.535 69.3833 35.7851C69.6346 36.0352 69.7596 36.3331 69.7596 36.6815C69.7596 36.9721 69.6695 37.2295 69.4908 37.455C69.3121 37.6806 69.0855 37.8295 68.8094 37.9032L69.883 39.7076H69.5068L69.5053 39.7061ZM67.1068 35.7157V37.6372H68.4826C68.7455 37.6372 68.9692 37.5446 69.1552 37.3581C69.3397 37.1716 69.4327 36.9461 69.4327 36.6801C69.4327 36.414 69.3397 36.187 69.1552 35.9991C68.9707 35.8111 68.7455 35.7172 68.4826 35.7172H67.1068V35.7157Z" fill="#EFEFEF"/>
<path d="M71.7324 36.5687C72.1842 36.5687 72.5517 36.7277 72.8336 37.0473C73.1154 37.3668 73.2563 37.7456 73.2563 38.1822C73.2563 38.1981 73.2563 38.2227 73.2534 38.256C73.252 38.2892 73.2505 38.3138 73.2505 38.3297H70.4568C70.4931 38.6738 70.6326 38.9499 70.8738 39.161C71.1149 39.3721 71.4113 39.4777 71.7643 39.4777C72.0113 39.4777 72.2263 39.4271 72.4123 39.3244C72.5968 39.2217 72.7377 39.0873 72.8321 38.9196L73.1038 39.0786C72.9759 39.2911 72.7958 39.4603 72.5604 39.5846C72.3265 39.709 72.0592 39.7712 71.7585 39.7712C71.2864 39.7712 70.897 39.6208 70.5934 39.3201C70.2898 39.0193 70.1372 38.6362 70.1372 38.1692C70.1372 37.7022 70.2868 37.3292 70.5847 37.0241C70.8825 36.7191 71.266 36.5673 71.7353 36.5673L71.7324 36.5687ZM71.7324 36.8637C71.3822 36.8637 71.0917 36.9721 70.8563 37.189C70.621 37.4058 70.4888 37.6863 70.4554 38.0304H72.9353C72.9018 37.6661 72.7725 37.3812 72.543 37.1745C72.3149 36.9677 72.0447 36.8651 71.7324 36.8651V36.8637Z" fill="#EFEFEF"/>
<path d="M76.1168 36.6367H76.4437L75.142 39.7062H74.7658L73.4583 36.6367H73.7909L74.9502 39.3881L76.1168 36.6367Z" fill="#EFEFEF"/>
<path d="M78.2698 36.5687C78.7216 36.5687 79.0892 36.7277 79.371 37.0473C79.6529 37.3668 79.7938 37.7456 79.7938 38.1822C79.7938 38.1981 79.7938 38.2227 79.7909 38.256C79.7894 38.2892 79.788 38.3138 79.788 38.3297H76.9943C77.0306 38.6738 77.1701 38.9499 77.4112 39.161C77.6524 39.3721 77.9488 39.4777 78.3018 39.4777C78.5488 39.4777 78.7638 39.4271 78.9497 39.3244C79.1342 39.2217 79.2737 39.0873 79.3696 38.9196L79.6413 39.0786C79.5134 39.2911 79.3333 39.4603 79.0979 39.5846C78.864 39.709 78.5967 39.7712 78.296 39.7712C77.8238 39.7712 77.4345 39.6208 77.1308 39.3201C76.8272 39.0193 76.6747 38.6362 76.6747 38.1692C76.6747 37.7022 76.8243 37.3292 77.1221 37.0241C77.42 36.7191 77.8035 36.5673 78.2727 36.5673L78.2698 36.5687ZM78.2698 36.8637C77.9197 36.8637 77.6277 36.9721 77.3938 37.189C77.1599 37.4058 77.0262 37.6863 76.9928 38.0304H79.4713C79.4379 37.6661 79.3086 37.3812 79.079 37.1745C78.8509 36.9677 78.5807 36.8651 78.2684 36.8651L78.2698 36.8637Z" fill="#EFEFEF"/>
<path d="M81.9265 36.5687C82.2926 36.5687 82.5832 36.6801 82.7996 36.9027C83.0161 37.1254 83.1236 37.4232 83.1236 37.7962V39.7047H82.8083V37.7962C82.8083 37.5099 82.7299 37.283 82.5715 37.1152C82.4132 36.9475 82.1909 36.8637 81.9018 36.8637C81.5851 36.8637 81.3265 36.9678 81.1246 37.1774C80.9226 37.3871 80.8224 37.6892 80.8224 38.0854V39.7061H80.5144V36.6367H80.8224V37.2193C81.0447 36.7856 81.4122 36.5687 81.9265 36.5687Z" fill="#EFEFEF"/>
<path d="M86.2122 36.6367H86.5202V39.7062H86.2122V39.1235C85.9899 39.5572 85.6224 39.7741 85.1081 39.7741C84.742 39.7741 84.4514 39.6628 84.235 39.4401C84.0185 39.2175 83.911 38.9196 83.911 38.5466V36.6382H84.2263V38.5466C84.2263 38.8329 84.3047 39.0599 84.4631 39.2276C84.6214 39.3953 84.8437 39.4792 85.1328 39.4792C85.4495 39.4792 85.7081 39.3751 85.91 39.1654C86.112 38.9558 86.2122 38.6536 86.2122 38.2575V36.6367Z" fill="#EFEFEF"/>
<path d="M88.8577 36.5687C89.3095 36.5687 89.6771 36.7277 89.9589 37.0473C90.2408 37.3668 90.3817 37.7456 90.3817 38.1822C90.3817 38.1981 90.3817 38.2227 90.3788 38.256C90.3773 38.2892 90.3759 38.3138 90.3759 38.3297H87.5822C87.6185 38.6738 87.758 38.9499 87.9991 39.161C88.2403 39.3721 88.5367 39.4777 88.8897 39.4777C89.1367 39.4777 89.3517 39.4271 89.5376 39.3244C89.7221 39.2217 89.8631 39.0873 89.9575 38.9196L90.2292 39.0786C90.1013 39.2911 89.9212 39.4603 89.6858 39.5846C89.4519 39.709 89.1846 39.7712 88.8839 39.7712C88.4117 39.7712 88.0224 39.6208 87.7187 39.3201C87.4151 39.0193 87.2626 38.6362 87.2626 38.1692C87.2626 37.7022 87.4122 37.3292 87.71 37.0241C88.0079 36.7191 88.3914 36.5673 88.8606 36.5673L88.8577 36.5687ZM88.8577 36.8637C88.5076 36.8637 88.2171 36.9721 87.9817 37.189C87.7464 37.4058 87.6141 37.6863 87.5807 38.0304H90.0606C90.0272 37.6661 89.8979 37.3812 89.6684 37.1745C89.4403 36.9677 89.1701 36.8651 88.8577 36.8651V36.8637Z" fill="#EFEFEF"/>
<path d="M93.1377 39.3981H95.2965V39.7047H92.8108V35.4092H95.2645V35.7157H93.1362V37.3856H95.1091V37.6921H93.1362V39.3981H93.1377Z" fill="#EFEFEF"/>
<path d="M98.5405 39.7062H98.1643L97.1226 38.3659L96.081 39.7062H95.7047L96.9367 38.1259L95.7788 36.6367H96.1551L97.1255 37.8844L98.0974 36.6367H98.4679L97.3115 38.123L98.542 39.7047L98.5405 39.7062Z" fill="#EFEFEF"/>
<path d="M100.384 39.7726C99.9192 39.7726 99.5328 39.6194 99.2248 39.3129C98.9168 39.0063 98.7628 38.6261 98.7628 38.1707C98.7628 37.7152 98.9168 37.3364 99.2248 37.0285C99.5328 36.7205 99.9192 36.5687 100.384 36.5687C100.685 36.5687 100.955 36.6396 101.198 36.7798C101.44 36.9215 101.618 37.1123 101.728 37.3538L101.475 37.5013C101.385 37.3046 101.241 37.1499 101.047 37.0343C100.852 36.9201 100.63 36.8622 100.384 36.8622C100.014 36.8622 99.7042 36.988 99.4529 37.2396C99.2016 37.4911 99.0766 37.8005 99.0766 38.1692C99.0766 38.5379 99.2016 38.8473 99.4529 39.0989C99.7042 39.3504 100.014 39.4762 100.384 39.4762C100.631 39.4762 100.852 39.4184 101.047 39.3042C101.241 39.19 101.391 39.0338 101.494 38.8372L101.753 38.9904C101.629 39.2276 101.445 39.417 101.201 39.5586C100.957 39.7003 100.683 39.7697 100.384 39.7697V39.7726Z" fill="#EFEFEF"/>
<path d="M103.788 36.5687C104.24 36.5687 104.607 36.7277 104.889 37.0473C105.171 37.3668 105.312 37.7456 105.312 38.1822C105.312 38.1981 105.312 38.2227 105.309 38.256C105.308 38.2892 105.306 38.3138 105.306 38.3297H102.512C102.549 38.6738 102.688 38.9499 102.929 39.161C103.17 39.3721 103.467 39.4777 103.82 39.4777C104.067 39.4777 104.282 39.4271 104.468 39.3244C104.652 39.2217 104.792 39.0873 104.888 38.9196L105.159 39.0786C105.031 39.2911 104.851 39.4603 104.616 39.5846C104.382 39.709 104.115 39.7712 103.814 39.7712C103.342 39.7712 102.953 39.6208 102.649 39.3201C102.345 39.0193 102.193 38.6362 102.193 38.1692C102.193 37.7022 102.342 37.3292 102.64 37.0241C102.938 36.7191 103.322 36.5673 103.791 36.5673L103.788 36.5687ZM103.788 36.8637C103.438 36.8637 103.146 36.9721 102.912 37.189C102.678 37.4058 102.544 37.6863 102.511 38.0304H104.989C104.956 37.6661 104.827 37.3812 104.597 37.1745C104.369 36.9677 104.099 36.8651 103.786 36.8651L103.788 36.8637Z" fill="#EFEFEF"/>
<path d="M106.032 39.7061V35.2256H106.34V39.7061H106.032Z" fill="#EFEFEF"/>
<path d="M107.291 39.7061V35.2256H107.599V39.7061H107.291Z" fill="#EFEFEF"/>
<path d="M109.938 36.5687C110.389 36.5687 110.757 36.7277 111.039 37.0473C111.321 37.3668 111.462 37.7456 111.462 38.1822C111.462 38.1981 111.462 38.2227 111.459 38.256C111.457 38.2892 111.456 38.3138 111.456 38.3297H108.662C108.698 38.6738 108.838 38.9499 109.079 39.161C109.32 39.3721 109.616 39.4777 109.97 39.4777C110.216 39.4777 110.431 39.4271 110.617 39.3244C110.802 39.2217 110.941 39.0873 111.037 38.9196L111.309 39.0786C111.181 39.2911 111.001 39.4603 110.766 39.5846C110.532 39.709 110.264 39.7712 109.964 39.7712C109.492 39.7712 109.102 39.6208 108.799 39.3201C108.495 39.0193 108.342 38.6362 108.342 38.1692C108.342 37.7022 108.492 37.3292 108.79 37.0241C109.088 36.7191 109.471 36.5673 109.94 36.5673L109.938 36.5687ZM109.938 36.8637C109.587 36.8637 109.295 36.9721 109.062 37.189C108.828 37.4058 108.694 37.6863 108.661 38.0304H111.139C111.106 37.6661 110.976 37.3812 110.747 37.1745C110.519 36.9677 110.248 36.8651 109.936 36.8651L109.938 36.8637Z" fill="#EFEFEF"/>
<path d="M113.594 36.5687C113.96 36.5687 114.251 36.6801 114.467 36.9027C114.684 37.1254 114.791 37.4232 114.791 37.7962V39.7047H114.476V37.7962C114.476 37.5099 114.398 37.283 114.239 37.1152C114.081 36.9475 113.859 36.8637 113.57 36.8637C113.253 36.8637 112.994 36.9678 112.792 37.1774C112.59 37.3871 112.49 37.6892 112.49 38.0854V39.7061H112.182V36.6367H112.49V37.2193C112.712 36.7856 113.08 36.5687 113.594 36.5687Z" fill="#EFEFEF"/>
<path d="M117.072 39.7726C116.607 39.7726 116.221 39.6194 115.913 39.3129C115.605 39.0063 115.451 38.6261 115.451 38.1707C115.451 37.7152 115.605 37.3364 115.913 37.0285C116.221 36.7205 116.607 36.5687 117.072 36.5687C117.373 36.5687 117.643 36.6396 117.886 36.7798C118.128 36.9215 118.306 37.1123 118.416 37.3538L118.163 37.5013C118.073 37.3046 117.929 37.1499 117.735 37.0343C117.54 36.9201 117.318 36.8622 117.072 36.8622C116.702 36.8622 116.392 36.988 116.141 37.2396C115.89 37.4911 115.765 37.8005 115.765 38.1692C115.765 38.5379 115.89 38.8473 116.141 39.0989C116.392 39.3504 116.702 39.4762 117.072 39.4762C117.319 39.4762 117.54 39.4184 117.735 39.3042C117.929 39.19 118.079 39.0338 118.182 38.8372L118.441 38.9904C118.317 39.2276 118.133 39.417 117.889 39.5586C117.644 39.7003 117.371 39.7697 117.072 39.7697V39.7726Z" fill="#EFEFEF"/>
<path d="M120.476 36.5687C120.928 36.5687 121.295 36.7277 121.577 37.0473C121.859 37.3668 122 37.7456 122 38.1822C122 38.1981 122 38.2227 121.997 38.256C121.996 38.2892 121.994 38.3138 121.994 38.3297H119.2C119.237 38.6738 119.376 38.9499 119.617 39.161C119.859 39.3721 120.155 39.4777 120.508 39.4777C120.755 39.4777 120.97 39.4271 121.156 39.3244C121.34 39.2217 121.48 39.0873 121.576 38.9196L121.847 39.0786C121.72 39.2911 121.539 39.4603 121.304 39.5846C121.07 39.709 120.803 39.7712 120.502 39.7712C120.03 39.7712 119.641 39.6208 119.337 39.3201C119.033 39.0193 118.881 38.6362 118.881 38.1692C118.881 37.7022 119.03 37.3292 119.328 37.0241C119.626 36.7191 120.01 36.5673 120.479 36.5673L120.476 36.5687ZM120.476 36.8637C120.126 36.8637 119.834 36.9721 119.6 37.189C119.366 37.4058 119.232 37.6863 119.199 38.0304H121.677C121.644 37.6661 121.515 37.3812 121.285 37.1745C121.057 36.9677 120.787 36.8651 120.475 36.8651L120.476 36.8637Z" fill="#EFEFEF"/>
<defs>
<linearGradient id="paint0_linear_577_1224" x1="2.39563" y1="12.736" x2="26.2535" y2="23.7636" gradientUnits="userSpaceOnUse">
<stop stop-color="#F9C704"/>
<stop offset="1" stop-color="#F9C704"/>
</linearGradient>
<linearGradient id="paint1_linear_577_1224" x1="21.8324" y1="21.3255" x2="37.7112" y2="10.3369" gradientUnits="userSpaceOnUse">
<stop stop-color="#FF792E"/>
<stop offset="0.12" stop-color="#FD8D22"/>
<stop offset="0.32" stop-color="#FBA615"/>
<stop offset="0.51" stop-color="#FAB80B"/>
<stop offset="0.73" stop-color="#F9C305"/>
<stop offset="0.96" stop-color="#F9C704"/>
<stop offset="0.97" stop-color="#FAB011"/>
<stop offset="0.98" stop-color="#FD8629"/>
<stop offset="0.99" stop-color="#FE7C2F"/>
<stop offset="1" stop-color="#FF7931"/>
</linearGradient>
</defs>
</svg>
