<svg width="410" height="103" viewBox="0 0 410 103" fill="none" xmlns="http://www.w3.org/2000/svg">
<path d="M13.16 42L0.98 -2.86102e-06H4.34L15.2 37.74L26.9 -2.86102e-06H30.68L42.44 37.74L53.24 -2.86102e-06H56.6L44.42 42H40.58L28.82 4.14L17 42H13.16ZM75.778 11.34C79.338 11.34 82.158 12.44 84.238 14.64C86.358 16.8 87.418 19.7 87.418 23.34V42H84.358V23.34C84.358 20.54 83.578 18.32 82.018 16.68C80.498 15.04 78.338 14.22 75.538 14.22C72.458 14.22 69.938 15.24 67.978 17.28C66.018 19.32 65.038 22.28 65.038 26.16V42H62.038V-2.86102e-06H65.038V17.7C67.198 13.46 70.778 11.34 75.778 11.34ZM117.279 12H120.519L107.559 44.76C106.399 47.72 104.759 50.04 102.639 51.72C100.519 53.44 98.1992 54.2 95.6792 54V51.18C97.5992 51.34 99.3192 50.78 100.839 49.5C102.399 48.26 103.659 46.48 104.619 44.16L105.279 42.54L91.4792 12H94.7192L106.839 38.7L117.279 12ZM155.641 42.66C151.121 42.66 147.361 41.16 144.361 38.16C141.361 35.16 139.861 31.44 139.861 27C139.861 22.56 141.361 18.84 144.361 15.84C147.361 12.84 151.121 11.34 155.641 11.34C158.561 11.34 161.201 12.04 163.561 13.44C165.921 14.8 167.641 16.66 168.721 19.02L166.261 20.46C165.381 18.54 163.981 17.02 162.061 15.9C160.181 14.78 158.041 14.22 155.641 14.22C152.041 14.22 149.021 15.46 146.581 17.94C144.141 20.38 142.921 23.4 142.921 27C142.921 30.6 144.141 33.64 146.581 36.12C149.021 38.56 152.041 39.78 155.641 39.78C158.041 39.78 160.181 39.22 162.061 38.1C163.981 36.98 165.441 35.46 166.441 33.54L168.961 35.04C167.761 37.36 165.961 39.22 163.561 40.62C161.201 41.98 158.561 42.66 155.641 42.66ZM189.274 11.34C192.834 11.34 195.654 12.44 197.734 14.64C199.854 16.8 200.914 19.7 200.914 23.34V42H197.854V23.34C197.854 20.54 197.074 18.32 195.514 16.68C193.994 15.04 191.834 14.22 189.034 14.22C185.954 14.22 183.434 15.24 181.474 17.28C179.514 19.32 178.534 22.28 178.534 26.16V42H175.534V-2.86102e-06H178.534V17.7C180.694 13.46 184.274 11.34 189.274 11.34ZM223.141 42.66C218.741 42.66 215.001 41.16 211.921 38.16C208.881 35.12 207.361 31.4 207.361 27C207.361 22.6 208.881 18.9 211.921 15.9C215.001 12.86 218.741 11.34 223.141 11.34C227.501 11.34 231.201 12.86 234.241 15.9C237.321 18.9 238.861 22.6 238.861 27C238.861 31.4 237.321 35.12 234.241 38.16C231.201 41.16 227.501 42.66 223.141 42.66ZM214.081 36.06C216.561 38.54 219.581 39.78 223.141 39.78C226.701 39.78 229.701 38.54 232.141 36.06C234.581 33.58 235.801 30.56 235.801 27C235.801 23.44 234.581 20.42 232.141 17.94C229.701 15.46 226.701 14.22 223.141 14.22C219.581 14.22 216.561 15.46 214.081 17.94C211.641 20.42 210.421 23.44 210.421 27C210.421 30.56 211.641 33.58 214.081 36.06ZM259.821 42.66C255.421 42.66 251.681 41.16 248.601 38.16C245.561 35.12 244.041 31.4 244.041 27C244.041 22.6 245.561 18.9 248.601 15.9C251.681 12.86 255.421 11.34 259.821 11.34C264.181 11.34 267.881 12.86 270.921 15.9C274.001 18.9 275.541 22.6 275.541 27C275.541 31.4 274.001 35.12 270.921 38.16C267.881 41.16 264.181 42.66 259.821 42.66ZM250.761 36.06C253.241 38.54 256.261 39.78 259.821 39.78C263.381 39.78 266.381 38.54 268.821 36.06C271.261 33.58 272.481 30.56 272.481 27C272.481 23.44 271.261 20.42 268.821 17.94C266.381 15.46 263.381 14.22 259.821 14.22C256.261 14.22 253.241 15.46 250.761 17.94C248.321 20.42 247.101 23.44 247.101 27C247.101 30.56 248.321 33.58 250.761 36.06ZM284.215 19.86C284.215 21.34 284.835 22.5 286.075 23.34C287.315 24.18 288.835 24.82 290.635 25.26C292.435 25.66 294.215 26.12 295.975 26.64C297.775 27.16 299.295 28.04 300.535 29.28C301.775 30.48 302.395 32.1 302.395 34.14C302.395 36.62 301.395 38.66 299.395 40.26C297.435 41.86 294.855 42.66 291.655 42.66C288.775 42.66 286.335 42.06 284.335 40.86C282.375 39.62 281.015 38 280.255 36L282.835 34.5C283.395 36.14 284.435 37.44 285.955 38.4C287.515 39.32 289.415 39.78 291.655 39.78C293.895 39.78 295.735 39.3 297.175 38.34C298.655 37.34 299.395 35.94 299.395 34.14C299.395 32.66 298.775 31.48 297.535 30.6C296.295 29.72 294.775 29.08 292.975 28.68C291.175 28.24 289.375 27.76 287.575 27.24C285.815 26.72 284.315 25.86 283.075 24.66C281.835 23.46 281.215 21.86 281.215 19.86C281.215 17.46 282.155 15.44 284.035 13.8C285.955 12.16 288.415 11.34 291.415 11.34C293.815 11.34 295.895 11.88 297.655 12.96C299.455 14.04 300.775 15.5 301.615 17.34L299.095 18.78C298.495 17.3 297.495 16.18 296.095 15.42C294.695 14.62 293.135 14.22 291.415 14.22C289.375 14.22 287.655 14.74 286.255 15.78C284.895 16.78 284.215 18.14 284.215 19.86ZM322.276 11.34C326.676 11.34 330.236 12.9 332.956 16.02C335.716 19.14 337.096 22.84 337.096 27.12C337.096 27.28 337.076 27.52 337.036 27.84C337.036 28.16 337.036 28.4 337.036 28.56H309.856C310.216 31.92 311.556 34.64 313.876 36.72C316.236 38.76 319.136 39.78 322.576 39.78C324.976 39.78 327.076 39.28 328.876 38.28C330.676 37.28 332.036 35.96 332.956 34.32L335.596 35.88C334.356 37.96 332.596 39.62 330.316 40.86C328.036 42.06 325.436 42.66 322.516 42.66C317.916 42.66 314.136 41.2 311.176 38.28C308.216 35.32 306.736 31.56 306.736 27C306.736 22.52 308.176 18.8 311.056 15.84C313.976 12.84 317.716 11.34 322.276 11.34ZM322.276 14.22C318.876 14.22 316.036 15.28 313.756 17.4C311.476 19.52 310.176 22.26 309.856 25.62H333.976C333.656 22.06 332.376 19.28 330.136 17.28C327.936 15.24 325.316 14.22 322.276 14.22ZM268.464 80.22C271.904 82.42 273.624 85.58 273.624 89.7C273.624 93.34 272.324 96.3 269.724 98.58C267.124 100.86 263.904 102 260.064 102H242.424V60H258.864C262.624 60 265.764 61.12 268.284 63.36C270.844 65.56 272.124 68.44 272.124 72C272.124 75.36 270.904 78.1 268.464 80.22ZM258.864 69H252.024V76.44H258.864C259.944 76.44 260.824 76.1 261.504 75.42C262.184 74.7 262.524 73.8 262.524 72.72C262.524 71.64 262.184 70.76 261.504 70.08C260.824 69.36 259.944 69 258.864 69ZM260.064 93C261.264 93 262.224 92.64 262.944 91.92C263.664 91.16 264.024 90.18 264.024 88.98C264.024 87.78 263.664 86.82 262.944 86.1C262.224 85.34 261.264 84.96 260.064 84.96H252.024V93H260.064ZM298.067 72H307.067V102H298.067V99.18C296.267 101.62 293.407 102.84 289.487 102.84C286.287 102.84 283.607 101.74 281.447 99.54C279.327 97.34 278.267 94.3 278.267 90.42V72H287.267V89.1C287.267 90.86 287.747 92.22 288.707 93.18C289.707 94.1 290.967 94.56 292.487 94.56C294.207 94.56 295.567 94.04 296.567 93C297.567 91.96 298.067 90.42 298.067 88.38V72ZM324.827 93.6H336.767V102H312.767V96L324.107 80.4H313.367V72H336.167V78L324.827 93.6ZM352.718 93.6H364.658V102H340.658V96L351.998 80.4H341.258V72H364.058V78L352.718 93.6ZM394.934 91.2C394.934 89.24 395.334 87.44 396.134 85.8C396.934 84.12 397.894 82.68 399.014 81.48C400.134 80.28 401.254 79.12 402.374 78C403.534 76.88 404.514 75.66 405.314 74.34C406.114 72.98 406.514 71.58 406.514 70.14C406.514 67.66 405.694 65.76 404.054 64.44C402.414 63.08 400.194 62.4 397.394 62.4C394.994 62.4 392.914 62.96 391.154 64.08C389.434 65.16 388.254 66.72 387.614 68.76L384.914 67.26C385.794 64.7 387.374 62.74 389.654 61.38C391.934 60.02 394.514 59.34 397.394 59.34C400.914 59.34 403.854 60.3 406.214 62.22C408.574 64.1 409.754 66.74 409.754 70.14C409.754 71.82 409.354 73.4 408.554 74.88C407.754 76.36 406.774 77.7 405.614 78.9C404.494 80.06 403.354 81.22 402.194 82.38C401.074 83.54 400.114 84.88 399.314 86.4C398.514 87.92 398.114 89.52 398.114 91.2H394.934ZM398.474 101.82C397.954 102.34 397.314 102.6 396.554 102.6C395.794 102.6 395.154 102.34 394.634 101.82C394.114 101.3 393.854 100.66 393.854 99.9C393.854 99.14 394.114 98.5 394.634 97.98C395.154 97.46 395.794 97.2 396.554 97.2C397.314 97.2 397.954 97.46 398.474 97.98C398.994 98.5 399.254 99.14 399.254 99.9C399.254 100.66 398.994 101.3 398.474 101.82Z" fill="#292929"/>
<path d="M24.68 102L16.76 88.2H12.2V102H2.6V60H19.4C23.4 60 26.8 61.4 29.6 64.2C32.4 67 33.8 70.4 33.8 74.4C33.8 76.96 33.08 79.34 31.64 81.54C30.24 83.7 28.38 85.38 26.06 86.58L35 102H24.68ZM12.2 69V79.8H19.4C20.72 79.8 21.84 79.28 22.76 78.24C23.72 77.2 24.2 75.92 24.2 74.4C24.2 72.88 23.72 71.6 22.76 70.56C21.84 69.52 20.72 69 19.4 69H12.2ZM45.7306 90.6C46.7706 93.4 49.1706 94.8 52.9306 94.8C55.3706 94.8 57.2906 94.04 58.6906 92.52L65.8906 96.66C62.9306 100.78 58.5706 102.84 52.8106 102.84C47.7706 102.84 43.7306 101.34 40.6906 98.34C37.6906 95.34 36.1906 91.56 36.1906 87C36.1906 82.48 37.6706 78.72 40.6306 75.72C43.6306 72.68 47.4706 71.16 52.1506 71.16C56.5106 71.16 60.1306 72.68 63.0106 75.72C65.9306 78.72 67.3906 82.48 67.3906 87C67.3906 88.28 67.2706 89.48 67.0306 90.6H45.7306ZM45.5506 83.88H58.4506C57.5706 80.72 55.4506 79.14 52.0906 79.14C48.6106 79.14 46.4306 80.72 45.5506 83.88ZM90.4634 72H100.423L89.3234 102H79.1234L68.0234 72H77.9834L84.2234 91.02L90.4634 72ZM110.594 90.6C111.634 93.4 114.034 94.8 117.794 94.8C120.234 94.8 122.154 94.04 123.554 92.52L130.754 96.66C127.794 100.78 123.434 102.84 117.674 102.84C112.634 102.84 108.594 101.34 105.554 98.34C102.554 95.34 101.054 91.56 101.054 87C101.054 82.48 102.534 78.72 105.494 75.72C108.494 72.68 112.334 71.16 117.014 71.16C121.374 71.16 124.994 72.68 127.874 75.72C130.794 78.72 132.254 82.48 132.254 87C132.254 88.28 132.134 89.48 131.894 90.6H110.594ZM110.414 83.88H123.314C122.434 80.72 120.314 79.14 116.954 79.14C113.474 79.14 111.294 80.72 110.414 83.88ZM154.939 71.16C158.139 71.16 160.799 72.26 162.919 74.46C165.079 76.66 166.159 79.7 166.159 83.58V102H157.159V84.9C157.159 83.14 156.659 81.8 155.659 80.88C154.699 79.92 153.459 79.44 151.939 79.44C150.219 79.44 148.859 79.96 147.859 81C146.859 82.04 146.359 83.58 146.359 85.62V102H137.359V72H146.359V74.82C148.159 72.38 151.019 71.16 154.939 71.16ZM191.719 72H200.719V102H191.719V99.18C189.919 101.62 187.059 102.84 183.139 102.84C179.939 102.84 177.259 101.74 175.099 99.54C172.979 97.34 171.919 94.3 171.919 90.42V72H180.919V89.1C180.919 90.86 181.399 92.22 182.359 93.18C183.359 94.1 184.619 94.56 186.139 94.56C187.859 94.56 189.219 94.04 190.219 93C191.219 91.96 191.719 90.42 191.719 88.38V72ZM215.36 90.6C216.4 93.4 218.8 94.8 222.56 94.8C225 94.8 226.92 94.04 228.32 92.52L235.52 96.66C232.56 100.78 228.2 102.84 222.44 102.84C217.4 102.84 213.36 101.34 210.32 98.34C207.32 95.34 205.82 91.56 205.82 87C205.82 82.48 207.3 78.72 210.26 75.72C213.26 72.68 217.1 71.16 221.78 71.16C226.14 71.16 229.76 72.68 232.64 75.72C235.56 78.72 237.02 82.48 237.02 87C237.02 88.28 236.9 89.48 236.66 90.6H215.36ZM215.18 83.88H228.08C227.2 80.72 225.08 79.14 221.72 79.14C218.24 79.14 216.06 80.72 215.18 83.88Z" fill="#F9C704"/>
</svg>
