<svg width="40" height="40" viewBox="0 0 40 40" fill="none" xmlns="http://www.w3.org/2000/svg">
<path d="M15 35L15 20M5 35L5 26.6667M25 35L25 13.3333M35 35V5" stroke="black" stroke-width="2" stroke-linecap="round"/>
<path d="M8.65217 17L5 11.4538V10.7143H5.42512C6.10789 10.7143 6.68116 10.6583 7.14493 10.5462C7.62158 10.4342 7.99517 10.2493 8.2657 9.9916C8.53623 9.73389 8.69726 9.38095 8.74879 8.93277H5V7.85714H8.72947C8.63929 7.44258 8.45894 7.10644 8.18841 6.84874C7.91787 6.57983 7.55072 6.38375 7.08696 6.2605C6.63607 6.13725 6.08213 6.07563 5.42512 6.07563H5V5H13V6.07563H9.34783C9.64412 6.28852 9.88889 6.54062 10.0821 6.83193C10.2754 7.12325 10.3977 7.46499 10.4493 7.85714H13V8.93277H10.4879C10.3977 9.7507 10.037 10.3894 9.4058 10.8487C8.78744 11.2969 7.96296 11.5826 6.93237 11.7059L10.6232 17H8.65217Z" fill="#292929"/>
</svg>
