<svg width="40" height="40" viewBox="0 0 40 40" fill="none" xmlns="http://www.w3.org/2000/svg">
<path d="M15.6665 20C15.6665 20.5523 16.1142 21 16.6665 21C17.2188 21 17.6665 20.5523 17.6665 20H15.6665ZM17.6665 13.3334C17.6665 12.7811 17.2188 12.3334 16.6665 12.3334C16.1142 12.3334 15.6665 12.7811 15.6665 13.3334H17.6665ZM22.3332 26.6667C22.3332 27.219 22.7809 27.6667 23.3332 27.6667C23.8855 27.6667 24.3332 27.219 24.3332 26.6667L22.3332 26.6667ZM24.3332 13.3334C24.3332 12.7811 23.8855 12.3334 23.3332 12.3334C22.7809 12.3334 22.3332 12.7811 22.3332 13.3334H24.3332ZM28.9998 26.6667C28.9998 27.219 29.4476 27.6667 29.9998 27.6667C30.5521 27.6667 30.9998 27.219 30.9998 26.6667H28.9998ZM30.9998 16.6667C30.9998 16.1144 30.5521 15.6667 29.9998 15.6667C29.4476 15.6667 28.9998 16.1144 28.9998 16.6667H30.9998ZM2.33317 16.6667C2.33317 17.219 2.78089 17.6667 3.33317 17.6667C3.88546 17.6667 4.33317 17.219 4.33317 16.6667H2.33317ZM19.9998 32.3334C19.4476 32.3334 18.9998 32.7811 18.9998 33.3334C18.9998 33.8856 19.4476 34.3334 19.9998 34.3334V32.3334ZM10.6665 25C10.6665 26.2887 9.62183 27.3334 8.33317 27.3334V29.3334C10.7264 29.3334 12.6665 27.3933 12.6665 25H10.6665ZM8.33317 27.3334C7.04451 27.3334 5.99984 26.2887 5.99984 25H3.99984C3.99984 27.3933 5.93994 29.3334 8.33317 29.3334V27.3334ZM5.99984 25C5.99984 23.7114 7.04451 22.6667 8.33317 22.6667V20.6667C5.93994 20.6667 3.99984 22.6068 3.99984 25H5.99984ZM8.33317 22.6667C9.62183 22.6667 10.6665 23.7114 10.6665 25H12.6665C12.6665 22.6068 10.7264 20.6667 8.33317 20.6667V22.6667ZM14.9913 34H1.67508V36H14.9913V34ZM13.9998 34.9914C13.9998 34.4439 14.4437 34 14.9913 34V36C15.5483 36 15.9998 35.5485 15.9998 34.9914H13.9998ZM8.33317 29.3334C11.4597 29.3334 13.9998 31.8682 13.9998 34.9914H15.9998C15.9998 30.7603 12.5609 27.3334 8.33317 27.3334V29.3334ZM2.6665 34.9914C2.6665 31.8682 5.20662 29.3334 8.33317 29.3334V27.3334C4.1054 27.3334 0.666504 30.7603 0.666504 34.9914H2.6665ZM0.666504 34.9914C0.666504 35.5485 1.11806 36 1.67508 36V34C2.22263 34 2.6665 34.4439 2.6665 34.9914H0.666504ZM17.6665 20V13.3334H15.6665V20H17.6665ZM24.3332 26.6667L24.3332 13.3334H22.3332L22.3332 26.6667L24.3332 26.6667ZM30.9998 26.6667V16.6667H28.9998V26.6667H30.9998ZM6.6665 7.66669H33.3332V5.66669H6.6665V7.66669ZM35.6665 10V30H37.6665V10H35.6665ZM35.6665 30C35.6665 31.2887 34.6218 32.3334 33.3332 32.3334V34.3334C35.7264 34.3334 37.6665 32.3933 37.6665 30H35.6665ZM33.3332 7.66669C34.6218 7.66669 35.6665 8.71136 35.6665 10H37.6665C37.6665 7.60679 35.7264 5.66669 33.3332 5.66669V7.66669ZM6.6665 5.66669C4.27327 5.66669 2.33317 7.60679 2.33317 10H4.33317C4.33317 8.71136 5.37784 7.66669 6.6665 7.66669V5.66669ZM4.33317 16.6667V10H2.33317V16.6667H4.33317ZM33.3332 32.3334H19.9998V34.3334H33.3332V32.3334Z" fill="black"/>
</svg>
