<svg width="40" height="40" viewBox="0 0 40 40" fill="none" xmlns="http://www.w3.org/2000/svg">
<path d="M27.8332 31.6333H12.1665C11.4665 31.6333 10.6832 31.0833 10.4498 30.4167L3.54984 11.1167C2.56651 8.35002 3.71651 7.50002 6.08318 9.20002L12.5832 13.85C13.6665 14.6 14.8998 14.2167 15.3665 13L18.2998 5.18335C19.2332 2.68335 20.7832 2.68335 21.7165 5.18335L24.6498 13C25.1165 14.2167 26.3498 14.6 27.4165 13.85L33.5165 9.50002C36.1165 7.63335 37.3665 8.58335 36.2998 11.6L29.5665 30.45C29.3165 31.0834 28.5332 31.6333 27.8332 31.6333Z" stroke="#292929" stroke-width="2" stroke-linecap="round" stroke-linejoin="round"/>
<path d="M10.8335 36.6667H29.1668" stroke="#292929" stroke-width="2" stroke-linecap="round" stroke-linejoin="round"/>
<path d="M15.833 27H24.1663" stroke="#292929" stroke-width="2" stroke-linecap="round" stroke-linejoin="round"/>
</svg>
