<svg width="40" height="40" viewBox="0 0 40 40" fill="none" xmlns="http://www.w3.org/2000/svg">
<path d="M19.9998 20L24.9998 15M38.3332 20C38.3332 30.1252 30.1251 38.3333 19.9998 38.3333C9.87462 38.3333 1.6665 30.1252 1.6665 20C1.6665 9.87478 9.87462 1.66667 19.9998 1.66667M31.6665 20C31.6665 26.4433 26.4432 31.6667 19.9998 31.6667C13.5565 31.6667 8.33317 26.4433 8.33317 20C8.33317 13.5567 13.5565 8.33333 19.9998 8.33333M24.9998 14.1667V6.86595C24.9998 6.64162 25.0903 6.42676 25.2507 6.26997L30.2507 1.3836C30.7784 0.867921 31.6665 1.24178 31.6665 1.97959V7.5C31.6665 7.96024 32.0396 8.33333 32.4998 8.33333H38.0202C38.7581 8.33333 39.1319 9.22144 38.6162 9.74911L33.7299 14.7491C33.5731 14.9096 33.3582 15 33.1339 15H25.8332C25.3729 15 24.9998 14.6269 24.9998 14.1667Z" stroke="black" stroke-width="2" stroke-linecap="round"/>
</svg>
