<svg width="40" height="40" viewBox="0 0 40 40" fill="none" xmlns="http://www.w3.org/2000/svg">
<path d="M8.23669 11.3913L7.8251 10.7053H7.8251L8.23669 11.3913ZM5.97631 32.357L6.542 31.7913H6.542L5.97631 32.357ZM5.43267 13.5783L6.12883 13.9725L6.12883 13.9725L5.43267 13.5783ZM31.7633 11.3913L32.1749 10.7053L31.7633 11.3913ZM34.0237 32.357L33.458 31.7913L34.0237 32.357ZM34.5673 13.5783L33.8712 13.9725V13.9725L34.5673 13.5783ZM8.36667 28.3333C8.36667 28.7752 8.72484 29.1333 9.16667 29.1333C9.60849 29.1333 9.96667 28.7752 9.96667 28.3333H8.36667ZM9.96667 25C9.96667 24.5582 9.60849 24.2 9.16667 24.2C8.72484 24.2 8.36667 24.5582 8.36667 25H9.96667ZM30.0333 28.3333C30.0333 28.7752 30.3915 29.1333 30.8333 29.1333C31.2752 29.1333 31.6333 28.7752 31.6333 28.3333H30.0333ZM31.6333 25C31.6333 24.5582 31.2752 24.2 30.8333 24.2C30.3915 24.2 30.0333 24.5582 30.0333 25H31.6333ZM8.36667 20C8.36667 20.4418 8.72484 20.8 9.16667 20.8C9.60849 20.8 9.96667 20.4418 9.96667 20H8.36667ZM9.96667 16.6667C9.96667 16.2248 9.60849 15.8667 9.16667 15.8667C8.72484 15.8667 8.36667 16.2248 8.36667 16.6667H9.96667ZM30.0333 20C30.0333 20.4418 30.3915 20.8 30.8333 20.8C31.2752 20.8 31.6333 20.4418 31.6333 20H30.0333ZM31.6333 16.6667C31.6333 16.2248 31.2752 15.8667 30.8333 15.8667C30.3915 15.8667 30.0333 16.2248 30.0333 16.6667H31.6333ZM19.2 33.3333C19.2 33.7752 19.5582 34.1333 20 34.1333C20.4418 34.1333 20.8 33.7752 20.8 33.3333H19.2ZM20.8 29.1667C20.8 28.7248 20.4418 28.3667 20 28.3667C19.5582 28.3667 19.2 28.7248 19.2 29.1667H20.8ZM20.8 15C20.8 14.5582 20.4418 14.2 20 14.2C19.5582 14.2 19.2 14.5582 19.2 15H20.8ZM19.2 15.0833C19.2 15.5252 19.5582 15.8833 20 15.8833C20.4418 15.8833 20.8 15.5252 20.8 15.0833H19.2ZM20.8 21.6667C20.8 21.2248 20.4418 20.8667 20 20.8667C19.5582 20.8667 19.2 21.2248 19.2 21.6667H20.8ZM19.2 21.75C19.2 22.1918 19.5582 22.55 20 22.55C20.4418 22.55 20.8 22.1918 20.8 21.75H19.2ZM25.8667 11.6667V28.3333H27.4667V11.6667H25.8667ZM14.1333 28.3333V11.6667H12.5333V28.3333H14.1333ZM20 34.2C18.406 34.2 17.291 34.1983 16.449 34.0851C15.63 33.975 15.1901 33.7727 14.8753 33.458L13.744 34.5894C14.4055 35.2509 15.2394 35.5369 16.2358 35.6708C17.2092 35.8017 18.4513 35.8 20 35.8V34.2ZM12.5333 28.3333C12.5333 29.8821 12.5316 31.1241 12.6625 32.0975C12.7965 33.0939 13.0824 33.9278 13.744 34.5894L14.8753 33.458C14.5606 33.1433 14.3583 32.7033 14.2482 31.8843C14.135 31.0423 14.1333 29.9273 14.1333 28.3333H12.5333ZM25.8667 28.3333C25.8667 29.9273 25.865 31.0423 25.7518 31.8843C25.6416 32.7033 25.4394 33.1433 25.1247 33.458L26.256 34.5894C26.9176 33.9278 27.2035 33.0939 27.3375 32.0975C27.4684 31.1241 27.4667 29.8821 27.4667 28.3333H25.8667ZM20 35.8C21.5487 35.8 22.7908 35.8017 23.7642 35.6708C24.7606 35.5369 25.5945 35.2509 26.256 34.5894L25.1247 33.458C24.8099 33.7727 24.37 33.975 23.551 34.0851C22.709 34.1983 21.594 34.2 20 34.2V35.8ZM20 5.8C21.594 5.8 22.709 5.8017 23.551 5.91491C24.37 6.02502 24.8099 6.22726 25.1247 6.542L26.256 5.41063C25.5945 4.74905 24.7606 4.46314 23.7642 4.32917C22.7908 4.1983 21.5487 4.2 20 4.2V5.8ZM27.4667 11.6667C27.4667 10.1179 27.4684 8.87591 27.3375 7.9025C27.2035 6.90607 26.9176 6.0722 26.256 5.41063L25.1247 6.542C25.4394 6.85674 25.6416 7.29669 25.7518 8.11569C25.865 8.95771 25.8667 10.0727 25.8667 11.6667H27.4667ZM20 4.2C18.4513 4.2 17.2092 4.1983 16.2358 4.32917C15.2394 4.46314 14.4055 4.74905 13.744 5.41063L14.8753 6.542C15.1901 6.22726 15.63 6.02502 16.449 5.91491C17.291 5.8017 18.406 5.8 20 5.8V4.2ZM14.1333 11.6667C14.1333 10.0727 14.135 8.95771 14.2482 8.11569C14.3583 7.29669 14.5606 6.85674 14.8753 6.542L13.744 5.41063C13.0824 6.0722 12.7965 6.90607 12.6625 7.9025C12.5316 8.87591 12.5333 10.1179 12.5333 11.6667H14.1333ZM13.3333 32.5333H11.6667V34.1333H13.3333V32.5333ZM5.8 26.6667V17.1079H4.2V26.6667H5.8ZM8.64829 12.0773L13.7449 9.01933L12.9217 7.64734L7.8251 10.7053L8.64829 12.0773ZM11.6667 32.5333C10.0727 32.5333 8.95771 32.5316 8.11569 32.4184C7.29669 32.3083 6.85674 32.1061 6.542 31.7913L5.41063 32.9227C6.0722 33.5843 6.90607 33.8702 7.9025 34.0042C8.87591 34.135 10.1179 34.1333 11.6667 34.1333V32.5333ZM4.2 26.6667C4.2 28.2154 4.1983 29.4574 4.32917 30.4308C4.46314 31.4273 4.74905 32.2611 5.41063 32.9227L6.542 31.7913C6.22726 31.4766 6.02502 31.0366 5.91491 30.2176C5.8017 29.3756 5.8 28.2606 5.8 26.6667H4.2ZM5.8 17.1079C5.8 16.1708 5.80087 15.5246 5.85033 15.0157C5.89812 14.5241 5.98682 14.2233 6.12883 13.9725L4.73651 13.1841C4.44585 13.6975 4.31822 14.2397 4.25784 14.8609C4.19913 15.4649 4.2 16.2014 4.2 17.1079H5.8ZM7.8251 10.7053C7.04778 11.1717 6.41577 11.5499 5.92806 11.911C5.42642 12.2824 5.02717 12.6708 4.73651 13.1841L6.12883 13.9725C6.27083 13.7217 6.48314 13.4908 6.88012 13.1969C7.29103 12.8927 7.84471 12.5595 8.64829 12.0773L7.8251 10.7053ZM32.1749 10.7053L27.0783 7.64734L26.2551 9.01933L31.3517 12.0773L32.1749 10.7053ZM26.4161 34.1333H28.3333V32.5333H26.4161V34.1333ZM35.8 26.6667V17.1079H34.2V26.6667H35.8ZM28.3333 34.1333C29.8821 34.1333 31.1241 34.135 32.0975 34.0042C33.0939 33.8702 33.9278 33.5843 34.5894 32.9227L33.458 31.7913C33.1433 32.1061 32.7033 32.3083 31.8843 32.4184C31.0423 32.5316 29.9273 32.5333 28.3333 32.5333V34.1333ZM34.2 26.6667C34.2 28.2606 34.1983 29.3756 34.0851 30.2176C33.975 31.0366 33.7727 31.4766 33.458 31.7913L34.5894 32.9227C35.2509 32.2611 35.5369 31.4273 35.6708 30.4308C35.8017 29.4574 35.8 28.2154 35.8 26.6667H34.2ZM31.3517 12.0773C32.1553 12.5595 32.709 12.8927 33.1199 13.1969C33.5169 13.4908 33.7292 13.7217 33.8712 13.9725L35.2635 13.1841C34.9728 12.6708 34.5736 12.2824 34.0719 11.911C33.5842 11.5499 32.9522 11.1717 32.1749 10.7053L31.3517 12.0773ZM35.8 17.1079C35.8 16.2014 35.8009 15.4649 35.7422 14.8609C35.6818 14.2397 35.5542 13.6975 35.2635 13.1841L33.8712 13.9725C34.0132 14.2233 34.1019 14.5241 34.1497 15.0157C34.1991 15.5246 34.2 16.1708 34.2 17.1079H35.8ZM9.96667 28.3333V25H8.36667V28.3333H9.96667ZM31.6333 28.3333V25H30.0333V28.3333H31.6333ZM9.96667 20V16.6667H8.36667V20H9.96667ZM31.6333 20V16.6667H30.0333V20H31.6333ZM20.8 33.3333V29.1667H19.2V33.3333H20.8ZM19.2 15V15.0833H20.8V15H19.2ZM19.2 21.6667V21.75H20.8V21.6667H19.2Z" fill="#292929"/>
</svg>
