<svg width="12" height="12" viewBox="0 0 12 12" fill="none" xmlns="http://www.w3.org/2000/svg">
<path d="M6.00002 0.3125C4.87514 0.3125 3.77552 0.646066 2.84021 1.27102C1.90491 1.89597 1.17593 2.78423 0.745453 3.82349C0.31498 4.86274 0.202348 6.00631 0.421802 7.10958C0.641255 8.21284 1.18294 9.22626 1.97835 10.0217C2.77376 10.8171 3.78717 11.3588 4.89044 11.5782C5.99371 11.7977 7.13727 11.685 8.17653 11.2546C9.21578 10.8241 10.1041 10.0951 10.729 9.15981C11.354 8.2245 11.6875 7.12488 11.6875 6C11.6846 4.49247 11.0845 3.04751 10.0185 1.98152C8.95251 0.915536 7.50755 0.315391 6.00002 0.3125ZM6.00002 10.8125C5.0482 10.8125 4.11775 10.5303 3.32634 10.0014C2.53492 9.47264 1.91809 8.72103 1.55385 7.84166C1.1896 6.9623 1.0943 5.99466 1.27999 5.06113C1.46568 4.12759 1.92403 3.27009 2.59707 2.59705C3.27011 1.92401 4.12761 1.46566 5.06115 1.27997C5.99468 1.09428 6.96231 1.18958 7.84168 1.55383C8.72105 1.91808 9.47266 2.53491 10.0015 3.32632C10.5303 4.11773 10.8125 5.04818 10.8125 6C10.8111 7.27591 10.3036 8.49915 9.40137 9.40135C8.49917 10.3036 7.27593 10.8111 6.00002 10.8125ZM7.96877 4.46875V7.09375C7.96877 7.20978 7.92267 7.32106 7.84063 7.40311C7.75858 7.48516 7.6473 7.53125 7.53127 7.53125C7.41524 7.53125 7.30396 7.48516 7.22191 7.40311C7.13986 7.32106 7.09377 7.20978 7.09377 7.09375V5.52422L4.78049 7.84297C4.69686 7.92383 4.58509 7.96903 4.46877 7.96903C4.35244 7.96903 4.24067 7.92383 4.15705 7.84297C4.07489 7.76002 4.02881 7.648 4.02881 7.53125C4.02881 7.4145 4.07489 7.30248 4.15705 7.21953L6.4758 4.90625H4.90627C4.79024 4.90625 4.67896 4.86016 4.59691 4.77811C4.51486 4.69606 4.46877 4.58478 4.46877 4.46875C4.46877 4.35272 4.51486 4.24144 4.59691 4.15939C4.67896 4.07734 4.79024 4.03125 4.90627 4.03125H7.53127C7.6473 4.03125 7.75858 4.07734 7.84063 4.15939C7.92267 4.24144 7.96877 4.35272 7.96877 4.46875Z" fill="#292929"/>
</svg>
