<svg width="40" height="40" viewBox="0 0 40 40" fill="none" xmlns="http://www.w3.org/2000/svg">
<path d="M23.3333 35.8333H16.6667M20 4.16666V5.83333M35 17.5H33.3333M5 17.5H6.66667M31.6667 9.16666L30.4882 10.3452M8.33333 9.16666L9.51184 10.3452M11.6667 19.1667C11.6667 14.5643 15.3976 10.8333 20 10.8333C24.6024 10.8333 28.3333 14.5643 28.3333 19.1667C28.3333 21.8972 27.0201 24.321 24.9907 25.8409C24.1718 26.4542 23.7624 26.7609 23.6005 27.0111C23.5174 27.1396 23.4896 27.1952 23.4366 27.3387C23.3333 27.6183 23.3333 27.9885 23.3333 28.7289C23.3333 29.9194 23.3333 30.5146 23.0432 30.9397C22.9261 31.1112 22.7779 31.2594 22.6063 31.3765C22.1813 31.6667 21.5861 31.6667 20.3956 31.6667H19.6044C18.4139 31.6667 17.8187 31.6667 17.3937 31.3765C17.2221 31.2594 17.0739 31.1112 16.9568 30.9397C16.6667 30.5146 16.6667 29.9194 16.6667 28.7289C16.6667 27.9885 16.6667 27.6183 16.5634 27.3387C16.5104 27.1952 16.4826 27.1396 16.3995 27.0111C16.2376 26.7609 15.8282 26.4542 15.0093 25.8409C12.9799 24.321 11.6667 21.8972 11.6667 19.1667Z" stroke="#292929" stroke-width="1.6" stroke-linecap="round"/>
</svg>
