<svg width="40" height="40" viewBox="0 0 40 40" fill="none" xmlns="http://www.w3.org/2000/svg">
<path fill-rule="evenodd" clip-rule="evenodd" d="M13.1891 6.399C12.8392 6.71656 12.4697 7.61663 12.9389 9.49363L12.9422 9.50692C13.5209 11.9119 15.2658 15.0752 17.9682 18.1137C20.6941 21.1549 23.6291 23.2409 25.9356 24.0698L25.9496 24.0748L25.9636 24.0801C27.602 24.7052 28.5145 24.5583 28.9318 24.3057L29.0707 24.1826C29.2754 24.0007 29.4859 23.6485 29.5312 22.9511C29.577 22.2449 29.4396 21.3016 29.0586 20.162C28.2985 17.8886 26.6654 15.1231 24.2901 12.473C21.9124 9.82002 19.3503 7.88691 17.1801 6.87369C16.0922 6.36582 15.1724 6.12154 14.4659 6.08575C13.7724 6.05061 13.3967 6.21643 13.1891 6.399ZM18.4817 4.08575C21.1112 5.31342 23.9952 7.53406 26.5814 10.4194C29.17 13.3075 31.0548 16.4292 31.9767 19.1864C32.4367 20.5621 32.6814 21.9201 32.6015 23.1503C32.537 24.1458 32.2512 25.129 31.6305 25.9305V26.0396L31.1199 26.4981C29.449 27.9985 27.0163 27.7718 24.8809 26.9603C21.9402 25.8994 18.6054 23.4351 15.675 20.1649L15.6712 20.1607C12.7566 16.8844 10.6877 13.2826 9.95224 10.2333C9.39915 8.01516 9.47878 5.59542 11.1366 4.10688L11.1428 4.10115C12.1257 3.22847 13.383 2.95012 14.6216 3.01286C15.851 3.07515 17.1696 3.47314 18.4817 4.08575Z" fill="#292929"/>
<path fill-rule="evenodd" clip-rule="evenodd" d="M12.1347 4.83118C12.9107 5.17741 13.259 6.08708 12.9128 6.86297L3.29262 28.4212L3.29118 28.4244C2.49044 30.2079 4.18912 32.1518 6.10425 31.557L6.10672 31.5563L28.6232 24.4403C29.4334 24.1843 30.2977 24.6335 30.5537 25.4436C30.8097 26.2538 30.3606 27.1181 29.5504 27.3741L7.0281 34.4918L7.02229 34.4937C2.62132 35.8654 -1.42108 31.4118 0.483465 27.166C0.483195 27.1666 0.483736 27.1654 0.483465 27.166L10.1031 5.60915C10.4493 4.83325 11.3589 4.48494 12.1347 4.83118Z" fill="#292929"/>
<path fill-rule="evenodd" clip-rule="evenodd" d="M18.9038 27.7418C19.7145 27.4875 20.5779 27.9386 20.8321 28.7494L21.9186 32.2137C21.9184 32.2132 21.9187 32.2141 21.9186 32.2137C22.7677 34.9099 21.2529 37.8262 18.5549 38.6767L15.0883 39.7639C15.0879 39.764 15.0888 39.7637 15.0883 39.7639C12.3921 40.613 9.47581 39.0981 8.6255 36.4002L7.53763 32.9315C7.28338 32.1207 7.73445 31.2575 8.54525 31.0032C9.35593 30.7489 10.2192 31.2 10.4734 32.0108L11.5599 35.4752C11.5598 35.4748 11.5601 35.4755 11.5599 35.4752C11.8995 36.5505 13.086 37.1689 14.1634 36.8293L17.6299 35.7422C17.6295 35.7424 17.6303 35.7421 17.6299 35.7422C18.7052 35.4027 19.3236 34.2161 18.9841 33.1388L17.8962 29.6701C17.642 28.8593 18.0931 27.996 18.9038 27.7418Z" fill="#292929"/>
<path fill-rule="evenodd" clip-rule="evenodd" d="M37.7787 2.35248C38.3829 2.94986 38.3884 3.92391 37.791 4.52809L35.9859 6.35371C35.3885 6.95787 34.4145 6.96339 33.8103 6.366C33.206 5.76863 33.2006 4.79457 33.798 4.19039L35.603 2.36478C36.2004 1.76061 37.1745 1.75509 37.7787 2.35248Z" fill="#292929"/>
<path fill-rule="evenodd" clip-rule="evenodd" d="M28.0221 0.138806C28.7954 0.491041 29.1366 1.40338 28.7843 2.17656L27.9434 4.02265C27.5911 4.79584 26.6788 5.13709 25.9056 4.78485C25.1324 4.43262 24.7912 3.52028 25.1434 2.74709L25.9844 0.90101C26.3366 0.127816 27.249 -0.213429 28.0221 0.138806Z" fill="#292929"/>
<path fill-rule="evenodd" clip-rule="evenodd" d="M39.8171 11.8889C40.2184 12.6378 39.9364 13.5702 39.1875 13.9714L37.4645 14.8945C36.7156 15.2958 35.7832 15.0138 35.382 14.2649C34.9807 13.516 35.2626 12.5836 36.0115 12.1824L37.7345 11.2592C38.4834 10.858 39.4158 11.14 39.8171 11.8889Z" fill="#292929"/>
</svg>
