<svg width="70" height="24" viewBox="0 0 70 24" fill="none" xmlns="http://www.w3.org/2000/svg">
<path d="M66 19L50 19M66 12L58 12M66 5L50 5" stroke="black" stroke-width="2" stroke-linecap="round"/>
<path d="M10.6038 6.2V16H9.31579V8.342L6.10979 13.676H5.94179L2.73579 8.356V16H1.43379V6.2H2.90379L6.02579 11.38L9.13379 6.2H10.6038ZM13.4274 13.06C13.5487 13.6853 13.8334 14.1707 14.2814 14.516C14.7387 14.8613 15.2987 15.034 15.9614 15.034C16.8854 15.034 17.5574 14.6933 17.9774 14.012L19.0134 14.6C18.3321 15.6547 17.3054 16.182 15.9334 16.182C14.8227 16.182 13.9174 15.8367 13.2174 15.146C12.5267 14.446 12.1814 13.564 12.1814 12.5C12.1814 11.4453 12.5221 10.568 13.2034 9.868C13.8847 9.168 14.7667 8.818 15.8494 8.818C16.8761 8.818 17.7114 9.182 18.3554 9.91C19.0087 10.6287 19.3354 11.4967 19.3354 12.514C19.3354 12.6913 19.3214 12.8733 19.2934 13.06H13.4274ZM15.8494 9.966C15.1961 9.966 14.6547 10.1527 14.2254 10.526C13.7961 10.89 13.5301 11.38 13.4274 11.996H18.1034C18.0007 11.3333 17.7394 10.8293 17.3194 10.484C16.8994 10.1387 16.4094 9.966 15.8494 9.966ZM24.2215 8.818C25.0429 8.818 25.7009 9.07933 26.1955 9.602C26.6902 10.1153 26.9375 10.8153 26.9375 11.702V16H25.7195V11.772C25.7195 11.2027 25.5655 10.764 25.2575 10.456C24.9495 10.1387 24.5249 9.98 23.9835 9.98C23.3769 9.98 22.8869 10.1713 22.5135 10.554C22.1402 10.9273 21.9535 11.506 21.9535 12.29V16H20.7355V9H21.9535V10.008C22.4482 9.21467 23.2042 8.818 24.2215 8.818ZM33.4679 9H34.6859V16H33.4679V14.992C32.9732 15.7853 32.2172 16.182 31.1999 16.182C30.3785 16.182 29.7205 15.9253 29.2259 15.412C28.7312 14.8893 28.4839 14.1847 28.4839 13.298V9H29.7019V13.228C29.7019 13.7973 29.8559 14.2407 30.1639 14.558C30.4719 14.866 30.8965 15.02 31.4379 15.02C32.0445 15.02 32.5345 14.8333 32.9079 14.46C33.2812 14.0773 33.4679 13.494 33.4679 12.71V9Z" fill="#292929"/>
</svg>
