<svg width="34" height="34" viewBox="0 0 34 34" fill="none" xmlns="http://www.w3.org/2000/svg">
<path d="M27.96 10.55V23.65C27.96 28.89 26.65 30.2 21.41 30.2H13.55C8.31 30.2 7 28.89 7 23.65V10.55C7 5.31 8.31 4 13.55 4H21.41C26.65 4 27.96 5.31 27.96 10.55Z" stroke="white" stroke-width="1.31" stroke-linecap="round" stroke-linejoin="round"/>
<path d="M20.1 8.58496H14.86" stroke="white" stroke-width="1.31" stroke-linecap="round" stroke-linejoin="round"/>
<path d="M17.48 26.401C18.6014 26.401 19.5105 25.4919 19.5105 24.3705C19.5105 23.2491 18.6014 22.34 17.48 22.34C16.3586 22.34 15.4495 23.2491 15.4495 24.3705C15.4495 25.4919 16.3586 26.401 17.48 26.401Z" stroke="white" stroke-width="1.31" stroke-linecap="round" stroke-linejoin="round"/>
</svg>
