<svg width="23" height="29" viewBox="0 0 23 29" fill="none" xmlns="http://www.w3.org/2000/svg">
<path d="M22.2 7.76997V20.87C22.2 26.11 20.89 27.42 15.65 27.42H7.78999C2.54999 27.42 1.23999 26.11 1.23999 20.87V7.76997C1.23999 2.52997 2.54999 1.21997 7.78999 1.21997H15.65C20.89 1.21997 22.2 2.52997 22.2 7.76997Z" stroke="white" stroke-width="1.31" stroke-linecap="round" stroke-linejoin="round"/>
<path d="M14.34 5.80493H9.09998" stroke="white" stroke-width="1.31" stroke-linecap="round" stroke-linejoin="round"/>
<path d="M11.72 23.6209C12.8414 23.6209 13.7505 22.7118 13.7505 21.5904C13.7505 20.469 12.8414 19.5599 11.72 19.5599C10.5986 19.5599 9.68951 20.469 9.68951 21.5904C9.68951 22.7118 10.5986 23.6209 11.72 23.6209Z" stroke="white" stroke-width="1.31" stroke-linecap="round" stroke-linejoin="round"/>
</svg>
