<svg width="96" height="61" viewBox="0 0 96 61" fill="none" xmlns="http://www.w3.org/2000/svg">
<path d="M27.4309 0L32.5343 9.5689C28.4941 11.0574 25.6234 13.0775 23.9223 15.6292C22.4338 18.1809 21.6895 19.4568 21.6895 19.4568C21.6895 19.4568 22.7527 19.6694 24.8792 20.0947C27.0056 20.3073 29.3446 21.0516 31.8963 22.3274C34.6607 23.6033 37.1061 25.6234 39.2325 28.3877C41.3589 30.9395 42.4221 34.5544 42.4221 39.2325C42.4221 45.1865 40.2957 50.2899 36.0429 54.5428C32.0027 58.583 27.1119 60.4967 21.3706 60.2841C15.4166 60.0715 10.3132 57.7324 6.06031 53.2669C2.0201 48.5888 0 42.9538 0 36.3618C0 28.0688 2.55171 20.7326 7.65512 14.3534C12.7585 7.76145 19.3505 2.97699 27.4309 0ZM80.0598 0L85.1632 9.5689C81.123 11.0574 78.2524 13.0775 76.5512 15.6292C75.0627 18.1809 74.3185 19.4568 74.3185 19.4568C74.3185 19.4568 75.3817 19.6694 77.5081 20.0947C79.6346 20.3073 81.9736 21.0516 84.5253 22.3274C87.2897 23.6033 89.7351 25.6234 91.8615 28.3877C93.9879 30.9395 95.0511 34.5544 95.0511 39.2325C95.0511 45.1865 92.9247 50.2899 88.6719 54.5428C84.6316 58.583 79.7409 60.4967 73.9995 60.2841C68.0455 60.0715 62.9421 57.7324 58.6893 53.2669C54.6491 48.5888 52.629 42.9538 52.629 36.3618C52.629 28.0688 55.1807 20.7326 60.2841 14.3534C65.3875 7.76145 71.9794 2.97699 80.0598 0Z" fill="#F9C704"/>
</svg>
