<svg width="34" height="36" viewBox="0 0 34 36" fill="none" xmlns="http://www.w3.org/2000/svg">
<path fill-rule="evenodd" clip-rule="evenodd" d="M11.0614 4.26382C11.0614 2.20353 12.7316 0.533325 14.7919 0.533325H18.9309C20.9912 0.533325 22.6614 2.20353 22.6614 4.26384C22.6614 5.90389 24.4368 6.92895 25.8572 6.1089C27.6415 5.07874 29.9231 5.69005 30.9533 7.47436L33.0227 11.0587C34.0529 12.843 33.4415 15.1246 31.6573 16.1548C30.2369 16.9748 30.2369 19.0249 31.6573 19.845C33.4415 20.8751 34.0529 23.1567 33.0227 24.941L30.9533 28.5254C29.9231 30.3097 27.6415 30.921 25.8572 29.8909C24.4369 29.0708 22.6614 30.0959 22.6614 31.736C22.6614 33.7964 20.9911 35.4667 18.9308 35.4667H14.792C12.7316 35.4667 11.0614 33.7964 11.0614 31.736C11.0614 30.0959 9.28592 29.0709 7.86559 29.8909C6.0813 30.921 3.79975 30.3097 2.76959 28.5254L0.700129 24.941C-0.330035 23.1567 0.281311 20.8752 2.06561 19.845C3.48597 19.0249 3.48597 16.9748 2.06561 16.1548C0.281312 15.1246 -0.330033 12.843 0.70013 11.0587L2.76959 7.47433C3.79975 5.69004 6.08133 5.07872 7.86561 6.10887C9.28596 6.92891 11.0614 5.90387 11.0614 4.26382ZM14.7919 2.13333C13.6152 2.13333 12.6614 3.08718 12.6614 4.26382C12.6614 7.13558 9.55259 8.93037 7.06561 7.49451C6.04658 6.90618 4.74356 7.25532 4.15523 8.27433L2.08577 11.8587C1.49744 12.8778 1.84658 14.1808 2.86561 14.7691C5.35264 16.205 5.35264 19.7947 2.86561 21.2306C1.84658 21.819 1.49743 23.122 2.08577 24.141L4.15523 27.7254C4.74356 28.7444 6.04657 29.0936 7.06559 28.5052C9.55263 27.0694 12.6614 28.8643 12.6614 31.736C12.6614 32.9127 13.6153 33.8667 14.792 33.8667H18.9308C20.1075 33.8667 21.0614 32.9127 21.0614 31.736C21.0614 28.8643 24.1702 27.0693 26.6572 28.5052C27.6763 29.0936 28.9793 28.7444 29.5677 27.7254L31.6371 24.141C32.2254 23.122 31.8763 21.819 30.8573 21.2306C28.3702 19.7947 28.3702 16.205 30.8573 14.7691C31.8763 14.1808 32.2254 12.8778 31.6371 11.8587L29.5677 8.27436C28.9793 7.25534 27.6763 6.90619 26.6572 7.49454C24.1702 8.9304 21.0614 7.13562 21.0614 4.26384C21.0614 3.08719 20.1075 2.13333 18.9309 2.13333H14.7919ZM16.8614 12.1333C13.6213 12.1333 10.9947 14.7599 10.9947 18C10.9947 21.2401 13.6213 23.8667 16.8614 23.8667C20.1015 23.8667 22.7281 21.2401 22.7281 18C22.7281 14.7599 20.1015 12.1333 16.8614 12.1333ZM9.39472 18C9.39472 13.8763 12.7377 10.5333 16.8614 10.5333C20.9851 10.5333 24.3281 13.8763 24.3281 18C24.3281 22.1237 20.9851 25.4667 16.8614 25.4667C12.7377 25.4667 9.39472 22.1237 9.39472 18Z" fill="#292929"/>
</svg>
