<svg width="40" height="40" viewBox="0 0 40 40" fill="none" xmlns="http://www.w3.org/2000/svg">
<path d="M30 5V10.2378M30 5H24.4205M30 5L16.7099 16.8134C16.2085 17.2591 15.9578 17.482 15.6887 17.5901C15.2584 17.763 14.7755 17.7488 14.3561 17.5509C14.0939 17.4272 13.8567 17.19 13.3823 16.7156C12.8821 16.2154 12.632 15.9653 12.3576 15.8403C11.9187 15.6404 11.4147 15.6404 10.9758 15.8403C10.7014 15.9653 10.4513 16.2154 9.95102 16.7156L6.66667 20M6.66667 35H10C10.9205 35 11.6667 34.2538 11.6667 33.3333V28.3333C11.6667 27.4129 10.9205 26.6667 10 26.6667H6.66667C5.74619 26.6667 5 27.4129 5 28.3333V33.3333C5 34.2538 5.74619 35 6.66667 35ZM18.3333 35H21.6667C22.5871 35 23.3333 34.2538 23.3333 33.3333V23.3333C23.3333 22.4129 22.5871 21.6667 21.6667 21.6667H18.3333C17.4129 21.6667 16.6667 22.4129 16.6667 23.3333V33.3333C16.6667 34.2538 17.4129 35 18.3333 35ZM30 35H33.3333C34.2538 35 35 34.2538 35 33.3333V16.6667C35 15.7462 34.2538 15 33.3333 15H30C29.0795 15 28.3333 15.7462 28.3333 16.6667V33.3333C28.3333 34.2538 29.0795 35 30 35Z" stroke="#292929" stroke-width="1.6" stroke-linecap="round" stroke-linejoin="round"/>
</svg>
