<svg width="40" height="40" viewBox="0 0 40 40" fill="none" xmlns="http://www.w3.org/2000/svg">
<path d="M20 40C20.9205 40 21.6667 39.2538 21.6667 38.3334C21.6667 37.4129 20.9205 36.6667 20 36.6667V40ZM36.6667 20C36.6667 20.9205 37.4128 21.6667 38.3333 21.6667C39.2538 21.6667 40 20.9205 40 20H36.6667ZM2.11826 15.0443C1.22225 15.2552 0.666803 16.1524 0.877628 17.0484C1.08845 17.9445 1.98572 18.4999 2.88172 18.2891L2.11826 15.0443ZM13.3333 20.8334L14.9145 21.3604L13.3333 20.8334ZM11.8426 35.9213C11.431 36.7446 11.7647 37.7457 12.588 38.1574C13.4113 38.569 14.4124 38.2353 14.824 37.412L11.8426 35.9213ZM7.97177 5.03971C7.07322 5.23939 6.50667 6.12968 6.70635 7.02824C6.90602 7.92679 7.79632 8.49334 8.69487 8.29367L7.97177 5.03971ZM20 8.33335L18.9588 9.6348L20 8.33335ZM35.8269 11.4471C36.6261 10.9904 36.9037 9.97233 36.4471 9.17314C35.9904 8.37394 34.9723 8.09628 34.1731 8.55296L35.8269 11.4471ZM37.1548 39.5119C37.8057 40.1627 38.861 40.1627 39.5118 39.5119C40.1627 38.861 40.1627 37.8057 39.5118 37.1548L37.1548 39.5119ZM20 36.6667C10.7952 36.6667 3.33332 29.2048 3.33332 20H-1.01328e-05C-1.01328e-05 31.0457 8.9543 40 20 40V36.6667ZM3.33332 20C3.33332 10.7953 10.7952 3.33335 20 3.33335V2.03848e-05C8.9543 2.03848e-05 -1.01328e-05 8.95433 -1.01328e-05 20H3.33332ZM20 3.33335C29.2047 3.33335 36.6667 10.7953 36.6667 20H40C40 8.95433 31.0457 2.03848e-05 20 2.03848e-05V3.33335ZM2.88172 18.2891C5.1932 17.7452 8.12305 17.3566 10.1394 17.7232C11.1532 17.9075 11.6189 18.2259 11.8015 18.4765C11.9256 18.6466 12.1521 19.1066 11.7522 20.3063L14.9145 21.3604C15.5145 19.5601 15.4772 17.8604 14.4953 16.5132C13.572 15.2464 12.0898 14.6898 10.7356 14.4436C8.01582 13.9491 4.529 14.4771 2.11826 15.0443L2.88172 18.2891ZM11.7522 20.3063C11.1295 22.1743 10.695 23.5281 10.4313 24.5412C10.1735 25.5317 10.027 26.3771 10.1144 27.1632C10.2102 28.026 10.5677 28.6319 10.8725 29.1109C11.1748 29.586 11.4751 30.0104 11.8426 30.7454L14.824 29.2547C14.3582 28.323 13.9293 27.7057 13.6847 27.3214C13.4427 26.941 13.4356 26.8698 13.4273 26.7951C13.4105 26.6438 13.4202 26.2913 13.6572 25.3808C13.8883 24.4928 14.2871 23.2424 14.9145 21.3604L11.7522 20.3063ZM11.8426 30.7454C12.8585 32.7772 12.261 35.0845 11.8426 35.9213L14.824 37.412C15.5167 36.0266 16.4748 32.5562 14.824 29.2547L11.8426 30.7454ZM8.69487 8.29367C9.80515 8.04694 11.7271 7.81386 13.738 7.9543C15.7786 8.09682 17.6746 8.6074 18.9588 9.6348L21.0411 7.03191C18.9921 5.39264 16.3047 4.79211 13.9703 4.62907C11.6062 4.46396 9.3615 4.73088 7.97177 5.03971L8.69487 8.29367ZM18.9588 9.6348C19.8373 10.3376 20.4478 11.1197 21.1773 12.0005C21.8553 12.8193 22.7162 13.831 23.9778 14.4247C25.3147 15.0538 26.8551 15.1164 28.7336 14.6355C30.5756 14.1639 32.8628 13.1409 35.8269 11.4471L34.1731 8.55296C31.3038 10.1925 29.3202 11.0445 27.907 11.4063C26.5303 11.7587 25.8312 11.6129 25.3972 11.4087C24.888 11.1691 24.4467 10.7224 23.7446 9.8745C23.0939 9.08872 22.246 7.9958 21.0411 7.03191L18.9588 9.6348ZM33.7255 28.5294C33.7255 31.3991 31.3991 33.7255 28.5294 33.7255V37.0588C33.2401 37.0588 37.0588 33.2401 37.0588 28.5294H33.7255ZM28.5294 33.7255C25.6597 33.7255 23.3333 31.3991 23.3333 28.5294H20C20 33.2401 23.8187 37.0588 28.5294 37.0588V33.7255ZM23.3333 28.5294C23.3333 25.6597 25.6597 23.3334 28.5294 23.3334V20C23.8187 20 20 23.8188 20 28.5294H23.3333ZM28.5294 23.3334C31.3991 23.3334 33.7255 25.6597 33.7255 28.5294H37.0588C37.0588 23.8188 33.2401 20 28.5294 20V23.3334ZM32.2529 34.6099L37.1548 39.5119L39.5118 37.1548L34.6099 32.2529L32.2529 34.6099Z" fill="#292929"/>
</svg>
